<svg width="14" height="14" viewBox="0 0 14 14" fill="none" xmlns="http://www.w3.org/2000/svg">
    <path
        d="M4 0V2L2 2L2 12H12V10H14V13C14 13.2652 13.8946 13.5196 13.7071 13.7071C13.5196 13.8946 13.2652 14 13 14H1C0.734784 14 0.48043 13.8946 0.292893 13.7071C0.105357 13.5196 0 13.2652 0 13L0 1C0 0.734784 0.105357 0.48043 0.292893 0.292893C0.48043 0.105357 0.734784 0 1 0L4 0ZM10.707 4.707L6.41421 8.99979L5.00021 7.58579L9.293 3.293L6 0L14 0V8L10.707 4.707Z"
        fill="#FFF"
    />
</svg>