<?xml version="1.0" encoding="utf-8"?>
<!-- Generator: Adobe Illustrator 27.0.0, SVG Export Plug-In . SVG Version: 6.00 Build 0)  -->
<svg version="1.1" id="layer" xmlns="http://www.w3.org/2000/svg" xmlns:xlink="http://www.w3.org/1999/xlink" x="0px" y="0px"
	 viewBox="0 0 652 290" style="enable-background:new 0 0 652 290;" xml:space="preserve">
<style type="text/css">
	.st0{fill:#FF0000;}
	.st1{fill:#FFFFFF;}
</style>
<g>
	<g>
		<path d="M61.3,38.7l-40,117.2h23.5l11.3-34.2h32.5l11.6,34.2h24l-40-117.2L61.3,38.7L61.3,38.7z M83,102.3H62l8.7-25.8
			c0.6-1.8,1.2-3.5,1.7-5.3c0.6,1.8,1.1,3.6,1.8,5.4L83,102.3z"/>
		<path d="M163.8,102.6c-10.8-4.3-12-6.3-12-9.4c0-3.9,3.3-6.4,8.6-6.4c6.4,0,11.3,2.5,13.7,4l4.6,2.9l6.1-18.6l-2.7-1.8
			c-5.3-3.5-13.3-5.5-21.4-5.5c-18.1,0-31.2,11.4-31.2,27.2c0,14.5,12.8,22.2,23.6,26.1c10.7,4,11.6,6.8,11.6,10.2
			c0,6.4-6.8,7.4-10.7,7.4c-6.2,0-12.9-2.7-16.7-4.9l-4.6-2.7l-6,19l2.9,1.7c6.6,3.9,15.3,6.1,24.1,6.1c19.9,0,33.3-11.2,33.3-27.8
			C187,113.2,173.7,106.3,163.8,102.6z"/>
		<path d="M222.3,49.2L199.9,56v13.4h-12v19.3H200V127c0,10.7,2.2,18.3,6.6,23.4c4.3,4.8,10.9,7.4,18.4,7.4c6.8,0,11.7-1.4,14-2.2
			l3-1.1l-1.2-19.4l-5.1,1.6c-1.6,0.4-3.3,0.8-7,0.8c-2.7,0-6.4,0-6.4-10.9V88.7h20.3V69.4h-20.2L222.3,49.2L222.3,49.2z"/>
		<path d="M297.1,68.6l-4.1-0.5c-1.2-0.2-2.4-0.3-4-0.3c-7.1,0-13.6,2.9-18.6,8l-0.2-6.4h-21l0.3,4.5c0.4,6.6,0.7,14.3,0.7,24.1v58
			h22.7v-45.9c0-2.2,0.2-4.3,0.4-5.9c1.7-9,7.3-14.6,14.8-14.6c1.8,0,2.9,0,3.9,0.2l5.1,1.1V68.6z"/>
		<path d="M338.5,67.8c-25.3,0-43,18.7-43,45.6c0,26.1,17.1,44.4,41.6,44.4c20.8,0,43.1-14.3,43.1-45.7
			C380.4,86,363.2,67.8,338.5,67.8z M357.4,112.5c0,15.1-8.2,26.1-19.4,26.1s-19.3-10.9-19.3-25.7c0-9.6,4.2-25.9,19.7-25.9
			C353.4,86.9,357.4,103.6,357.4,112.5z"/>
		<path d="M454.8,48c-7.5-6.7-18.7-10.1-33.3-10.1c-9.8,0-19.1,0.7-27.6,2.2l-3.5,0.6V156h22.5v-42.9c2.3,0.2,4.7,0.3,7,0.3
			c15.2,0,28.1-4.7,36.3-13.2c6.4-6.5,9.6-15.3,9.6-26.2C465.7,63.5,461.9,54.3,454.8,48z M443.2,74.7c0,16.4-14.4,18.8-23,18.8
			c-2.9,0-5.3-0.1-7.4-0.4V57.9c2.2-0.3,5.2-0.4,9-0.4C431.6,57.6,443.2,60.6,443.2,74.7z"/>
		<path d="M534.8,133v-29.2c0-23.3-12.1-36-33.9-36c-10.1,0-20.7,2.8-28.1,7.4L470,77l6.1,18l4.7-3.2c4.7-3.2,11.5-5.1,18.2-5.1
			c4.5-0.1,7.9,1,10.1,3.2c1.8,1.8,2.9,4.5,3.3,7.9c-17.7,0.5-30.7,4.8-38.5,12.6c-5.5,5.4-8.3,12.4-8.3,20.7
			c0,13.2,9.6,26.7,28.1,26.7c7.9,0,15.3-2.5,21.1-7l0.6,5.1h21.5l-0.7-4.9C535.1,146.3,534.8,140.2,534.8,133z M497,138.8
			c-3.4,0-9-1.2-9-9.3c0-3.1,0.9-5.5,2.9-7.5c2.7-2.6,8.5-5.6,21.7-5.9v9.3c0,0.7-0.1,1.9-0.4,3.2
			C510.5,133.3,505.6,138.8,497,138.8z"/>
		<path d="M597.2,69.4l-16.4,48.7c-0.4,1.2-0.8,2.5-1.2,3.7c-0.4-1.2-0.8-2.4-1.3-3.5l-17.9-48.9h-24.8l31,77.7l0.1,0.2
			c0.5,1,0.7,1.6,0.7,1.8c-0.2,0.4-0.5,1.2-0.7,1.7c-2.7,5.8-6.7,11.1-10.7,14.3l-0.1,0.1c-4.5,3.8-9.2,5.6-11,6.1l-4,1.3l5.8,19.4
			l3.7-0.7c2.3-0.4,10.3-2.3,19.5-10c11-9.7,18.3-25.3,27.9-50.6l23.5-61.4L597.2,69.4L597.2,69.4z"/>
		<path class="st0" d="M104.2,71c14.6-14.9,39.4-23.8,66.3-23.8c10.5,0,20.7,1.3,30.3,4l0.8,0.2l17.3-5.2l-7.8-2.9
			c-14.7-5.6-31.7-8.6-49.1-8.6c-25.3,0-48.8,6.1-66.5,17.2l-1.9,1.2l7.3,21.3L104.2,71z"/>
	</g>
	<path class="st0" d="M528.9,243.4c0,6.5-5.3,11.9-11.9,11.9H387.9c-6.5,0-11.9-5.3-11.9-11.9v-55.9c0-6.5,5.4-11.9,11.9-11.9H517
		c6.5,0,11.9,5.4,11.9,11.9V243.4L528.9,243.4z"/>
	<g>
		<path class="st1" d="M411.5,201.2c-3.8,0-6.9,1.4-9,4.1c-2.2,2.7-3.3,6.4-3.3,11.2c0,5,1.1,8.7,3.2,11.4c2.1,2.6,5.1,3.8,9.1,3.8
			c1.7,0,3.4-0.1,5-0.6c1.7-0.3,3.3-0.7,5-1.3v5.8c-3.2,1.2-6.8,1.8-10.9,1.8c-6,0-10.6-1.8-13.7-5.4c-3.2-3.6-4.8-8.8-4.8-15.5
			c0-4.3,0.8-8,2.3-11.1c1.6-3.2,3.8-5.6,6.8-7.3c2.9-1.7,6.4-2.5,10.2-2.5c4.2,0,8,0.9,11.6,2.6l-2.4,5.6c-1.3-0.7-2.8-1.2-4.3-1.7
			C414.8,201.5,413.2,201.2,411.5,201.2z"/>
		<path class="st1" d="M449,236.9l-1.3-4.3h-0.2c-1.4,1.8-2.9,3.1-4.5,3.8c-1.4,0.7-3.4,1.1-5.7,1.1c-3,0-5.4-0.8-7.1-2.5
			s-2.5-3.9-2.5-6.9c0-3.2,1.2-5.6,3.5-7.2s5.9-2.5,10.7-2.6l5.4-0.2v-1.7c0-2-0.4-3.4-1.4-4.4c-0.9-1-2.3-1.5-4.3-1.5
			c-1.6,0-3.1,0.2-4.5,0.7c-1.5,0.5-2.8,1-4.2,1.7l-2.1-4.7c1.7-0.9,3.5-1.6,5.5-2c2-0.5,3.9-0.7,5.7-0.7c3.9,0,6.9,0.9,8.9,2.6
			s3,4.3,3,8v20.7H449V236.9z M439.2,232.4c2.3,0,4.3-0.7,5.7-2c1.4-1.3,2.2-3.2,2.2-5.6v-2.6l-3.9,0.2c-3.1,0.1-5.4,0.7-6.8,1.6
			s-2,2.3-2,4.2c0,1.4,0.4,2.4,1.2,3.2S437.6,232.4,439.2,232.4z"/>
		<path class="st1" d="M477.5,205.5c1.3,0,2.4,0.1,3.3,0.3l-0.6,6.1c-0.9-0.2-1.9-0.3-2.9-0.3c-2.6,0-4.7,0.8-6.4,2.6
			c-1.6,1.7-2.4,3.9-2.4,6.6v16.1H462v-30.8h5.1l0.9,5.4h0.3c1.1-1.8,2.3-3.3,4-4.4C473.8,206,475.7,205.5,477.5,205.5z"/>
		<path class="st1" d="M496.9,237.5c-3.8,0-6.8-1.4-9-4.2c-2.2-2.8-3.3-6.7-3.3-11.7c0-5.1,1.1-9,3.3-11.8c2.1-2.8,5.1-4.3,9-4.3
			c4,0,7.1,1.5,9.2,4.5h0.3c-0.3-2.3-0.4-3.9-0.4-5.3v-11.2h6.5v43.4h-5.1l-1.1-4H506C504.1,235.9,500.9,237.5,496.9,237.5z
			 M498.7,232.1c2.7,0,4.7-0.7,5.9-2.2c1.3-1.5,1.9-4,1.9-7.4v-0.9c0-3.9-0.7-6.7-1.9-8.3c-1.2-1.6-3.2-2.4-5.9-2.4
			c-2.3,0-4.1,0.9-5.4,2.8c-1.2,1.9-1.8,4.5-1.8,8s0.6,6,1.8,7.8C494.4,231.2,496.2,232.1,498.7,232.1z"/>
	</g>
</g>
</svg>
