<?xml version="1.0" encoding="utf-8"?>
<!-- Generator: Adobe Illustrator 26.0.3, SVG Export Plug-In . SVG Version: 6.00 Build 0)  -->
<svg version="1.1" id="Camada_1" xmlns="http://www.w3.org/2000/svg" xmlns:xlink="http://www.w3.org/1999/xlink" x="0px" y="0px"
	 viewBox="0 0 48 48" style="enable-background:new 0 0 48 48;" xml:space="preserve">
<style type="text/css">
	.st0{fill:#078700;}
</style>
<path class="st0" d="M21.05,33.1L35.2,18.95l-2.3-2.25L21.05,28.55l-6-6L12.8,24.8L21.05,33.1z M24,44c-2.73,0-5.32-0.52-7.75-1.58
	c-2.43-1.05-4.56-2.48-6.38-4.3s-3.25-3.94-4.3-6.38S4,26.73,4,24c0-2.77,0.53-5.37,1.57-7.8s2.48-4.55,4.3-6.35
	s3.94-3.22,6.38-4.28S21.27,4,24,4c2.77,0,5.37,0.53,7.8,1.57s4.55,2.48,6.35,4.28c1.8,1.8,3.23,3.92,4.28,6.35
	C43.48,18.63,44,21.23,44,24c0,2.73-0.52,5.32-1.58,7.75c-1.05,2.43-2.48,4.56-4.28,6.38c-1.8,1.82-3.92,3.25-6.35,4.3
	C29.37,43.48,26.77,44,24,44z M24,41c4.73,0,8.75-1.66,12.05-4.97C39.35,32.71,41,28.7,41,24c0-4.73-1.65-8.75-4.95-12.05
	C32.75,8.65,28.73,7,24,7c-4.7,0-8.71,1.65-12.02,4.95S7,19.27,7,24c0,4.7,1.66,8.71,4.98,12.03C15.29,39.34,19.3,41,24,41z"/>
</svg>
