<?xml version="1.0" encoding="utf-8"?>
<!-- Generator: Adobe Illustrator 26.0.3, SVG Export Plug-In . SVG Version: 6.00 Build 0)  -->
<svg version="1.1" xmlns="http://www.w3.org/2000/svg" xmlns:xlink="http://www.w3.org/1999/xlink" x="0px" y="0px"
	 viewBox="0 0 52 52" style="enable-background:new 0 0 52 52;" xml:space="preserve">
<style type="text/css">
	.st0{fill:#5D647E;}
	.st1{fill:#FE4F19;}
	.st2{fill:#FE9400;}
	.st3{fill:#898794;}
	.st4{fill:#B7B9BF;}
	.st5{fill:#FED000;}
</style>
<g id="Camada_1">
</g>
<g id="Camada_2">
	<g>
		<path class="st0" d="M47.5,44.34H4.5c-2.22,0-4.03-1.8-4.03-4.03V11.69c0-2.22,1.8-4.03,4.03-4.03H47.5c2.22,0,4.03,1.8,4.03,4.03
			v28.63C51.52,42.54,49.72,44.34,47.5,44.34z"/>
		<path class="st1" d="M35.57,18.84c-0.01-2.64,2.13-4.79,4.76-4.8c2.64-0.01,4.79,2.13,4.8,4.76c0.01,2.64-2.13,4.79-4.76,4.8
			C37.74,23.61,35.58,21.47,35.57,18.84z"/>
		<path class="st2" d="M11.64,18.97c-0.02,0.5,0.14,0.67,0.65,0.66c2.44-0.02,4.88-0.01,7.31-0.01v1.6c-2.45,0-4.9,0-7.35-0.01
			c-0.4,0-0.63,0.07-0.61,0.54c0.03,0.61,0.01,1.23,0.01,1.84h-1.6v-9.53h1.6c0,0.58,0.03,1.16-0.01,1.74
			c-0.03,0.51,0.17,0.65,0.66,0.64c2.43-0.02,4.87-0.01,7.3-0.01v1.6h-7.01C11.64,18.03,11.66,18.03,11.64,18.97z"/>
		<path class="st3" d="M15.64,38.76c-2.52,0-5.05,0-7.57,0c-0.2,0-0.4,0.01-0.59-0.04c-0.38-0.09-0.59-0.36-0.59-0.76
			c0-0.4,0.21-0.67,0.59-0.76c0.19-0.05,0.4-0.04,0.59-0.04c5.05,0,10.09,0,15.14,0c0.03,0,0.07,0,0.1,0
			c0.73,0.01,1.09,0.27,1.09,0.8c0,0.53-0.36,0.8-1.09,0.8C20.75,38.76,18.2,38.76,15.64,38.76z"/>
		<path class="st4" d="M10.47,29.99c0.63,0,1.26-0.01,1.89,0c1.02,0.01,1.66,0.67,1.68,1.7c0,0.25,0.01,0.5,0,0.75
			c-0.05,0.86-0.68,1.52-1.53,1.53c-1.36,0.03-2.72,0.02-4.08,0c-0.88-0.02-1.51-0.68-1.55-1.57c-0.01-0.25-0.01-0.5,0-0.75
			c0.02-1,0.66-1.65,1.66-1.66C9.18,29.98,9.82,29.99,10.47,29.99z"/>
		<path class="st4" d="M20.82,33.97c-0.65,0-1.29,0.01-1.94,0c-0.97-0.02-1.62-0.67-1.64-1.63c-0.01-0.27-0.01-0.53,0-0.8
			c0.04-0.86,0.66-1.53,1.52-1.54c1.38-0.03,2.75-0.01,4.13-0.01c0.05,0,0.1,0.01,0.15,0.01c1,0.15,1.44,0.92,1.37,2.39
			c-0.04,0.89-0.67,1.54-1.55,1.57C22.18,33.99,21.5,33.97,20.82,33.97C20.82,33.97,20.82,33.97,20.82,33.97z"/>
		<path class="st4" d="M31.19,29.99c0.65,0,1.29-0.01,1.94,0c0.96,0.02,1.61,0.67,1.64,1.63c0.01,0.27,0.01,0.53,0,0.8
			c-0.04,0.86-0.67,1.53-1.52,1.54c-1.38,0.03-2.75,0.01-4.13,0.01c-0.05,0-0.1,0-0.15-0.01c-0.87-0.21-1.49-0.68-1.37-2.39
			c0.06-0.89,0.67-1.54,1.55-1.57C29.83,29.97,30.51,29.99,31.19,29.99C31.19,29.99,31.19,29.99,31.19,29.99z"/>
		<path class="st4" d="M41.56,33.97c-0.63,0-1.26,0.01-1.89,0c-1.05-0.01-1.69-0.66-1.7-1.72c0-0.25-0.01-0.5,0.01-0.75
			c0.05-0.83,0.67-1.49,1.51-1.5c1.38-0.03,2.75-0.01,4.13-0.01c0.05,0,0.1,0,0.15,0.01c1,0.14,1.45,0.91,1.38,2.38
			c-0.04,0.89-0.66,1.55-1.54,1.58C42.92,33.99,42.24,33.97,41.56,33.97C41.56,33.97,41.56,33.97,41.56,33.97z"/>
		<path class="st3" d="M30.44,37.16c1.11,0,2.22,0,3.33,0c0.64,0,0.99,0.29,0.99,0.8c0,0.5-0.35,0.79-0.99,0.79
			c-2.26,0-4.51,0-6.77,0c-0.64,0-0.99-0.3-0.99-0.8c0-0.5,0.35-0.79,0.99-0.79C28.15,37.16,29.3,37.16,30.44,37.16z"/>
		<g>
			<path class="st5" d="M10.05,14.06v9.53c-0.22-0.15-0.23-0.39-0.23-0.62c-0.02-2.76-0.02-5.53,0-8.29
				C9.82,14.44,9.83,14.21,10.05,14.06z"/>
			<path class="st5" d="M10.05,23.59c-0.54,0.01-1.09,0.03-1.64,0.01c-0.87-0.03-1.53-0.7-1.54-1.57c-0.02-2.14-0.02-4.28,0-6.42
				c0.01-0.88,0.67-1.54,1.54-1.56c0.55-0.02,1.1,0,1.64,0.01c-0.22,0.15-0.23,0.38-0.23,0.62c-0.02,2.76-0.02,5.53,0,8.29
				C9.82,23.2,9.83,23.44,10.05,23.59z"/>
			<path class="st5" d="M19.6,16.43c-2.43,0-4.87-0.01-7.3,0.01c-0.49,0.01-0.69-0.13-0.66-0.64c0.04-0.58,0.01-1.16,0.01-1.74
				c0.3,0.22,0.23,0.56,0.24,0.86c0.03,1.19,0.09,1.26,1.28,1.26c1.87,0.01,3.74,0,5.62,0.01C19.08,16.19,19.39,16.14,19.6,16.43z"
				/>
			<path class="st5" d="M19.62,15.59c0.01,0.28-0.01,0.56-0.02,0.84c-0.21-0.29-0.52-0.24-0.81-0.24c-1.88-0.01-3.75,0-5.62-0.01
				c-1.19,0-1.25-0.07-1.28-1.26c-0.01-0.3,0.06-0.64-0.24-0.86c2.13-0.01,4.27-0.03,6.4-0.01C18.92,14.05,19.58,14.72,19.62,15.59z
				"/>
			<path class="st5" d="M19.6,21.22c-0.21,0.29-0.52,0.23-0.81,0.24c-1.76,0.01-3.51,0-5.27,0h-0.65c-0.79,0.02-0.96,0.18-0.98,0.96
				c0,0.22,0,0.44-0.01,0.65c-0.01,0.2-0.05,0.4-0.23,0.52c0-0.61,0.02-1.23-0.01-1.84c-0.02-0.47,0.21-0.54,0.61-0.54
				C14.7,21.22,17.15,21.22,19.6,21.22z"/>
			<path class="st5" d="M19.62,22.06c-0.04,0.87-0.7,1.54-1.57,1.54c-2.13,0.01-4.27,0-6.4-0.01c0.18-0.12,0.22-0.32,0.23-0.52
				c0.01-0.21,0.01-0.43,0.01-0.65c0.02-0.78,0.19-0.94,0.98-0.96h0.65c1.76,0,3.51,0.01,5.27,0c0.29-0.01,0.6,0.05,0.81-0.24
				C19.61,21.5,19.63,21.78,19.62,22.06z"/>
			<path class="st5" d="M19.6,19.62c-2.43,0-4.87-0.01-7.31,0.01c-0.51,0.01-0.67-0.16-0.65-0.66c0.02-0.94,0-0.94,0.95-0.94h7.01
				c-0.21,0.29-0.52,0.24-0.81,0.24c-1.94,0.01-3.88,0-5.82,0c-0.21,0-0.43-0.01-0.64,0.06c-0.25,0.08-0.39,0.25-0.38,0.52
				c0.01,0.24,0.15,0.39,0.38,0.47c0.21,0.07,0.43,0.05,0.64,0.05c1.94,0.01,3.88,0,5.82,0.01C19.08,19.38,19.39,19.33,19.6,19.62z"
				/>
			<path class="st5" d="M19.6,18.03v1.59c-0.21-0.29-0.52-0.24-0.81-0.24c-1.94-0.01-3.88,0-5.82-0.01c-0.21,0-0.43,0.02-0.64-0.05
				c-0.23-0.08-0.37-0.23-0.38-0.47c-0.01-0.27,0.13-0.44,0.38-0.52c0.21-0.07,0.43-0.06,0.64-0.06c1.94,0,3.88,0.01,5.82,0
				C19.08,18.27,19.39,18.32,19.6,18.03z"/>
		</g>
	</g>
</g>
</svg>
