<?xml version="1.0" encoding="utf-8"?>
<!-- Generator: Adobe Illustrator 27.0.0, SVG Export Plug-In . SVG Version: 6.00 Build 0)  -->
<svg version="1.1" id="Слой_1" xmlns="http://www.w3.org/2000/svg" xmlns:xlink="http://www.w3.org/1999/xlink" x="0px" y="0px"
	 viewBox="0 0 374.9 127.2" style="enable-background:new 0 0 374.9 127.2;" xml:space="preserve">
<style type="text/css">
	.st0{fill:#8CC23C;}
	.st1{fill:#033564;}
</style>
<g id="XMLID_64_">
	<path id="XMLID_151_" class="st0" d="M72,21.9c-33.6,0-60.7,15.9-60.7,35.6c0,8.4,4.9,16,13.2,22.2c-4.1-5.1-6.4-10.7-6.4-16.7
		c0-20.4,26.6-37,59.3-37c21.1,0,39.7,6.9,50.2,17.3C118.2,30.7,96.8,21.9,72,21.9z"/>
	<path id="XMLID_148_" class="st1" d="M66.7,67.6c2.5,0,4.5-0.5,6-1.6c1.7-1.1,2.6-2.8,2.6-5c0-4.1-1.3-7.8-4-11.2
		c-2.7-3.4-6.1-6-10.2-7.8c-2.9-1.2-6.1-1.8-9.7-1.8c-7.2,0-13.1,2.3-17.7,7c-4.6,4.7-6.9,10.3-6.9,16.8c0,6.6,2.4,12.2,7.2,16.7
		c4.8,4.5,10.8,6.8,18.1,6.8c3.9,0,7.6-0.5,11.1-1.6c4.2-1.3,7.3-3.1,9.2-5.5c1.1-1.3,1.6-2.6,1.6-3.9c0-3.4-1.9-5.2-5.8-5.2
		c-0.8,0-3,0.7-6.5,2.2c-3.5,1.5-6.5,2.2-8.9,2.2c-3,0-5.5-0.7-7.5-2.1c-2-1.4-3.2-3.3-3.5-5.9H66.7z M45,53.2
		c1.7-1.4,3.9-2.2,6.5-2.2c2.5,0,4.7,0.7,6.5,2.2c1.8,1.5,2.8,3.4,2.9,5.7H41.6C42.1,56.6,43.2,54.7,45,53.2z"/>
	<path id="XMLID_146_" class="st1" d="M83.4,80.6c4.5,4.5,10.4,6.8,17.7,6.8c4.4,0,8.1-0.7,11-2c4.1-1.9,6.1-4.1,6.1-6.8
		c0-1.6-0.5-2.9-1.6-4.1c-1.1-1.1-2.4-1.7-4.1-1.7c-1.1,0-2.6,0.3-4.3,1c-1.7,0.7-3.6,1-5.7,1c-3.5,0-6.2-1.1-8.1-3.3
		c-1.7-2-2.5-4.6-2.5-7.9c0-3.1,0.8-5.7,2.4-7.8c1.8-2.3,4.4-3.4,7.7-3.4c2,0,4,0.3,5.8,1c1.8,0.7,3.3,1,4.5,1
		c1.7,0,3.2-0.5,4.3-1.6c1.1-1.1,1.7-2.4,1.7-4c0-3.1-2-5.4-6-6.9c-3-1.1-6.4-1.6-10.4-1.6c-7.6,0-13.7,2.2-18.2,6.6
		c-4.6,4.4-6.9,10.1-6.9,17C76.9,70.7,79,76.2,83.4,80.6L83.4,80.6z"/>
	<path id="XMLID_138_" class="st1" d="M125.5,80.7c4.7,4.7,10.7,7,18,7c7.3,0,13.3-2.3,18-6.9c4.5-4.5,6.7-10.1,6.7-16.8
		c0-6.8-2.3-12.5-6.8-17c-4.5-4.5-10.5-6.8-17.9-6.8c-7.3,0-13.2,2.3-17.8,6.9c-4.6,4.6-6.9,10.2-6.9,17
		C118.7,70.6,120.9,76.2,125.5,80.7L125.5,80.7z M136,56.2c1.7-2.4,4.2-3.5,7.4-3.5c3.1,0,5.6,1.2,7.3,3.6c1.6,2.1,2.3,4.6,2.3,7.6
		c0,3.1-0.8,5.6-2.3,7.6c-1.7,2.4-4.2,3.6-7.4,3.6c-3.1,0-5.6-1.2-7.3-3.6c-1.6-2.1-2.3-4.6-2.3-7.6C133.8,60.8,134.5,58.3,136,56.2
		L136,56.2z"/>
	<path id="XMLID_101_" class="st0" d="M188.6,39h6.5c6.9,0,10.3,2.6,10.3,7.8c0,5.3-3.4,8-10.3,8h-6.5V39z M188.6,77.4V67.1h10.1
		c7.1,0,12.7-1.8,16.8-5.3c4.1-3.6,6.1-8.6,6.1-15c0-6.5-2.3-11.6-6.8-15.2c-4.3-3.4-10.1-5.2-17.3-5.2H184c-3.9,0-6.6,0.7-8.1,2.1
		c-1.5,1.4-2.3,3.9-2.3,7.5v41.3c0,6.5,2.5,9.7,7.5,9.7C186.1,87,188.6,83.8,188.6,77.4L188.6,77.4z"/>
	<path id="XMLID_95_" class="st0" d="M239.9,56.5c1.7-2.2,4.1-3.4,7.1-3.4c3.1,0,5.4,1.1,7.1,3.4c1.4,2,2.2,4.4,2.2,7.3
		c0,2.9-0.7,5.4-2.2,7.4c-1.7,2.3-4,3.4-7.1,3.4c-3.1,0-5.5-1.1-7.2-3.4c-1.5-2-2.2-4.5-2.2-7.4C237.6,60.9,238.3,58.5,239.9,56.5
		L239.9,56.5z M263.8,87c4.8,0,7.2-3.2,7.2-9.7V50.6c0-6.4-2.4-9.6-7.2-9.6c-3,0-5.3,1.4-7,4.2c-3-3.2-6.9-4.8-11.7-4.8
		c-6.7,0-12.2,2.5-16.5,7.4c-4.1,4.6-6.1,10-6.1,16.2c0,6.1,2,11.5,5.9,16c4.3,4.9,9.7,7.4,16.3,7.4c5.2,0,9.3-1.7,12.3-5
		C258.3,85.5,260.7,87,263.8,87L263.8,87z"/>
	<path id="XMLID_81_" class="st0" d="M304.9,46.2L296,67.4l-8.3-20c-0.9-2.2-1.7-3.7-2.4-4.5c-1.2-1.3-2.9-1.9-5-1.9
		c-2,0-3.7,0.6-5.1,1.9c-1.4,1.3-2,2.8-2,4.7c0,1.3,0.3,2.5,0.8,3.7l14.7,31.3l-6,11.9c-0.8,1.7-1.2,3.2-1.2,4.5c0,2,0.7,3.5,2,4.7
		c1.3,1.1,3.1,1.7,5.2,1.7c2.6,0,4.7-1.8,6.4-5.3l22.3-48c0.8-1.7,1.2-3.2,1.2-4.6c0-4.2-2.4-6.3-7.2-6.3
		C308.6,40.9,306.4,42.7,304.9,46.2L304.9,46.2z"/>
	<path id="XMLID_69_" class="st0" d="M354.5,74H340l19.4-22.7c2-2.3,3-4.2,3-5.8c0-1.8-0.8-2.9-2.3-3.3c-1.5-0.5-3.8-0.7-7-0.7
		h-23.4c-6.2,0-9.3,2-9.3,6c0,4.1,3.1,6.1,9.2,6.1h12.6l-20.1,23.6c-1.4,1.7-2.2,3.4-2.2,5.1c0,2.7,2.6,4.1,7.7,4.1h26.6
		c6.1,0,9.2-2,9.2-6.1C363.6,76.1,360.5,74,354.5,74L354.5,74z"/>
</g>
</svg>
