<svg id="Camada_1" data-name="Camada 1" xmlns="http://www.w3.org/2000/svg" viewBox="0 0 1080 1080"><defs><style>.cls-1{fill:#010101;}.cls-2{fill:#6db85a;}.cls-3{fill:#efedef;}.cls-4{fill:#f9bc87;}.cls-5{fill:#faf8f9;}.cls-6{fill:#f6a96d;}.cls-7{fill:#eeecee;}.cls-8{fill:#020201;}.cls-9{fill:#070502;}</style></defs><path class="cls-1" d="M532.68,1073.24c-2.87-3.26-7.11-3.31-10.83-4.61-37.37-13.11-67.73-35.48-89.46-68.83-3.64-5.6-6.33-6.74-11.8-2.58a153.43,153.43,0,0,1-17.52,11c-10.18,5.78-20.14,4.84-28.56-3.22a215.34,215.34,0,0,1-43.49-59c-4.73-9.38-1.42-16.55,6.25-22.5,10.12-5.09,18.25-2.73,24.16,7.6,6.88,12,14,23.86,22.83,34.64,5.42,6.64,10.56,8.89,18.32,3a162,162,0,0,1,19.32-12.17c13.06-7.31,22.21-5,29.21,8.45a149.25,149.25,0,0,0,44.75,52.45c5.34,3.89,11.19,6.93,16.68,10.54,19.3,12.73,38.38,10,57.63-.24,26.45-14,47-34,61.35-60.22,1.83-3.34,3.3-6.89,6-9.69,7.92-7.16,16.26-6.42,24.78-1.21,7.08,4.33,14.26,8.55,21.07,13.26,5.72,4,9.84,3.3,14.3-1.77a172.75,172.75,0,0,0,27-41.67c7.34-16.79,13.87-33.82,16.13-52.16,1.65-7.4,2.7-14.91,3.61-22.44.5-4.16-.73-6.52-5.32-6.88-25.66-2-46.16-14.89-65.25-30.91-5-4.16-10.17-11.39-15.91-10.4-6.22,1.07-5.24,10.92-9,16.1a26.35,26.35,0,0,0-1.83,3.73c-21.71,35.88-61.68,47.94-100,30-4.3-2-8-3.25-12.67-.73-33,17.77-73.25,10.31-99.12-25.16-3.15-5.75-6.39-11.49-8.53-17.7-1.81-5.24-4.3-5.31-8.31-2.25-5.76,4.4-11.42,8.93-17.07,13.46-16,12.78-33.75,21.57-54.29,23.57-6.85.66-7.88,4-7,9.65,1.07,7.16,2.63,14.28,1.79,21.6-1.07,9.33-5.92,14.07-14.88,14.57-12.78-1.27-17-5.39-18.64-17.73-1.34-10.27-3.08-20.49-4.17-30.79-.46-4.28-2.94-5.86-6.28-7.18-28.27-11.2-44-34.93-58.18-59.64-8.68-15.13,2.53-33.44,19.91-34.75,1.72-.13,3.53.16,5.18-.24,5.57-1.33,14.79,3.8,16.23-3.21,1.84-8.93,3-18.73-6.59-27.17-71.09-62.57-114.84-141.22-129.69-234.41C110.47,261,247,64.65,455.17,17.52c5-1.14,10.18-1.86,15.3-2.6,10.09-1.45,16.79,2.43,19.32,12.62,2.62,11.19-1.87,18.21-14.86,21.05a516.17,516.17,0,0,0-52.11,13.9C379.05,77,340,99.66,304.31,129.11,345,121,385.64,115.05,427,116.1c24.87.64,49.8-1.55,74.62,1.9,8,1.11,15.59-.82,23.1-4.3a785.89,785.89,0,0,1,139-49.63A334.72,334.72,0,0,0,588.39,46c-15.1-1.75-30.21-3.31-45.48-3.44-13.34-.11-18.94-6-18.73-17.66,3.56-13.23,7.07-16.38,19.91-16.07,137,3.31,245.49,61.08,326.2,171.5,7.82,10.69,7.26,15-1.41,25.64-8.17,5.87-13.89,5.77-21.18-.51-4.24-3.66-7.25-8.37-10.53-12.82-27.22-36.94-60.4-67.42-98.58-92.8-12.33-8.19-24-11-38.86-7.44C594.48,117.22,496.91,158.19,413,227.83c-71.14,59-124.32,131.47-160.33,216.68-16.82,39.8-28.57,80.93-36.28,123.34-1.28,7-1.41,13.69,3.88,20.41,4-3.77,5.95-8.52,8.54-12.78C267.87,511.15,320.16,460.83,388,427.8c20-9.72,39.17-20.52,58.34-31.6C503.83,363,566.43,345,631.61,334.65a646.92,646.92,0,0,1,97.13-7.89,759.53,759.53,0,0,1,122,8.71c14,2.19,28.06,4.32,42,7.16,9.84,2,10.08,1.64,8-8.59-4.67-23.55-12.28-46.16-21.6-68.24-2.31-5.44-4.27-11-4-17,.36-7,2.87-12.09,10.49-13.22,13.57-2,17.53.26,23.11,13.13q45.68,105.27,29.44,218.86C924.16,564.76,880,645.89,806.59,710.82c-9.1,8-7.82,16.55-7.94,25.9-.06,4.39,3.33,3.52,6,3.56,6.24.08,12.48-.14,18.71.16,19.09.93,30.35,20.32,20.43,36.58-14.65,24-30.24,47.54-58.3,58.18-5.09,1.93-5,5.65-5.58,9.84-4.1,28-7.45,56.05-18.4,82.55a229.76,229.76,0,0,1-49.22,74.83c-11.14,11.26-20.75,12.26-34.33,4-7.07-4.28-14.55-12.21-21.17-11.57-5.37.53-9.58,11.51-14.56,17.64-23.89,29.42-54.7,48.14-90.9,58.44-1.54.44-3.56,0-4,2.28Z"/><path class="cls-2" d="M885.7,235.54c-9.51,8.13-10.93,13.45-5.67,25.3,10.94,24.65,18.65,50.3,24.45,76.56,1.44,6.52,2.93,11-8.17,8.76-56.68-11.53-114.07-17.44-171.94-16.27-92.06,1.85-181.58,17.11-263.14,61.82-40.39,22.14-83.1,40.32-120.93,67.08-47.92,33.89-86,76.74-115,127.67-1.51,2.64-3,5.27-4.67,8.09-14.64-14.69-6.57-31-3.35-45.87,26-120.19,83.51-222.86,174.36-306,70.92-64.9,154.31-108,245.81-136.16,24.33-7.47,49-13.66,73.85-19.16,6.49-1.44,11.15-.15,16.34,2.9,46.33,27.18,84.85,62.87,116.13,106.45,8.59,12,11.45,13,25.11,9.23Q877.3,220.73,885.7,235.54Z"/><path class="cls-2" d="M524.18,24.87c2.93,11.74,10.72,15.18,22.37,15.26C589.34,40.42,630.81,48.4,672,64c-17.86,5.36-34.65,10.32-51.4,15.43a623,623,0,0,0-92.24,36.11c-9.87,4.82-19.42,6-29.9,5.25-66.16-4.58-132-3.55-196.83,12.51-1.28.32-2.71,0-5.54,0,11-11.37,22.95-19.77,34.91-28,42.83-29.62,90-49.09,141-59,13.28-2.59,16.12-5.41,17.73-18.69Z"/><path class="cls-3" d="M638.79,959.09c-15.89,32.77-39.35,57.62-72.76,73.45-18.06,8.56-34.13,8.57-51.74-.76-27.76-14.7-49.37-35-63.78-63-8.22-15.92-14.84-17.69-30.31-8.18-5.88,3.62-12.3,6.61-17.47,11-8.37,7.2-13.73,4.77-19.63-3.2-7.81-10.56-16.06-20.82-21.75-32.71-5-10.51-12.43-15.26-24.08-12.2l-10.38-33c10.7-3.38,14.35-10.75,12.58-21.54-1.39-8.46-2.37-17-3.67-26.54,37.66,1.79,62.73-22.73,90.16-43.83a110.66,110.66,0,0,0,10.75,27.19c-15.6,13.18-31.49,25.87-50.14,34.74-12.49,5.94-17.36,20.95-10.87,33.72,6.62,13,16.32,24,26.09,34.76,4.3,4.73,9.59,4.86,15.15,1.93,6.12-3.23,12-6.85,18.11-10.14,10.86-5.89,18.36-4.54,26.94,4.44a60.59,60.59,0,0,1,6.3,8.23c18.66,27.67,44.48,46,75.34,57.73a40.87,40.87,0,0,0,29.21.63c19.95-6.76,38.2-16,54.17-29.83,3.32-2.86,6.66-6.25,11.78-5.58A1.56,1.56,0,0,1,638.79,959.09Z"/><path class="cls-4" d="M765.6,728.08c-20.7-13.72-38.39-31.18-57.81-46.48-10-7.9-19.77-16.15-29.4-24.53-20.69-18-44-29.33-72-28.94-.76-3.46,1.92-5.34,2.56-7.9,2-7.89,0-14.53-7.22-18.68s-14-2.42-19.5,3.66c-3,3.29-5.38,7.07-8,10.62a20.58,20.58,0,0,1-11.67,3.28q-20.52.09-41,0a20.56,20.56,0,0,1-11.67-3.28c-2.06-2.73-4.14-5.44-6.18-8.19-6.09-8.23-13.92-10.46-21.48-6.11s-9.65,12.19-5.64,21.58c.53,1.23,1.17,2.41,2.28,4.68-24.11.41-45.32,7.31-63.64,21.77-12.75,10.07-25.09,20.67-37.61,31l-61.8,51.22c-2.73-1.58-2.1-3.48-2.1-5q-.07-72.13,0-144.29c0-2,.4-4.1.61-6.16,10-18.14,25.31-32,39.82-46a559.22,559.22,0,0,1,43.51-38.43c32.26-25.37,69.66-36,109.34-41,55-6.89,107.51,2.49,157.68,25.48a280.47,280.47,0,0,1,72.46,47.86c7.4,6.75,15.67,12.55,22.28,20.2,4.19,4.84,7.22,9.94,7.21,16.68q-.12,81.5,0,163A6.47,6.47,0,0,1,765.6,728.08Z"/><path class="cls-5" d="M638.68,956.75c-20.18,15.7-40.71,30.38-65.83,38a44.47,44.47,0,0,1-30.9-1.25c-32.24-12.7-59.07-32.16-78.05-61.79-9.07-14.15-17.27-15.48-31.25-6.76-5,3.1-10.16,5.85-15.2,8.85-6.13,3.65-11.8,3.46-16.76-2-10-11-19.69-22.23-26.88-35.25-8.48-15.36-2-32.44,13.84-39.51,14.9-6.65,27.68-16.65,40-27.16,2.73-2.33,5.2-4.54,9-4.07,24.34,34.3,67.46,43,99.75,22.95,2.83-1.76,4.94-1.24,7.41.26,33.88,20.47,78.93,10,101.7-27.25,8.16.72,13.58,6.52,19.25,11.22,21,17.36,43.93,29.8,71.61,31.86,6.42.48,8.52,3.66,6.52,9.7a138.49,138.49,0,0,1-16.71,53.19c-11.1,14.29-12.91,14.59-28.74,4.69-24.74-15.48-25.27-15.23-43.12,8.08C649.84,946.49,645.78,953.17,638.68,956.75Z"/><path class="cls-2" d="M532.1,394.23c26.12-10.26,50.75-16.33,75.58-21.34a639.89,639.89,0,0,1,131.77-12.25c55.36.46,110.14,6.95,164.35,18.23,4.7,1,7.07,2.85,7.29,8.12,2.81,69.8-9.39,139.26-49,207.66C788.77,469.25,683.16,396.88,532.1,394.23Z"/><path class="cls-2" d="M189.56,524.05c-16.59-49-22-98.94-16.92-150.17C179,309.74,200.73,251.55,237,198.46c6.08-8.9,13.19-15.23,23.19-19.32C293,165.74,327.13,158.59,362.09,154c32.73-4.31,65.51-4.4,101.71-3.95C393.93,193.82,336,246.48,289.25,311.19S210.16,447,189.56,524.05Z"/><path class="cls-5" d="M645.36,671.8c23.56,16.45,44.35,36.33,66.82,54.13,7.33,5.79,14.76,11.54,21.52,18,20.83,19.76,44.56,31.46,74.46,27.1C793.24,809.27,745,823.43,711,799.52c-20.64-14.51-40.46-30.23-60.1-46.08s-41.72-23.57-67-23.19c-28.74.42-57.5.22-86.25,0a96.38,96.38,0,0,0-62.33,21.56Q406.42,774.75,377,797c-23.76,18-52,19.33-75.16,4.1-3.18-9.92-.07-15.93,9.76-18.55,5.43-1.45,11-1.21,16.54-.86,18,1.15,32.88-5.48,46.49-16.88q43.76-36.66,87.8-72.95c12.22-10.07,25.69-17.41,41.35-20.64,4.56-.94,8.84-1.28,13.19.46,16.68,6.68,33.36,6.74,50,0C593.15,666.86,619.26,666.62,645.36,671.8Z"/><path class="cls-6" d="M765.6,728.08c0-52.32-.77-104.65.29-157,.32-16-7.83-25.07-18-34-21-18.51-42.64-36-67.46-49.43a295,295,0,0,0-91.36-31.89c-19.77-3.39-39.72-5.43-59.75-4.08-51.86,3.5-100.63,15.09-141,51.27-24.7,22.16-48.84,44.69-70,70.27-1.06,1.28-2.71,2.08-4.09,3.1-.19-16.6-.25-33.2-.64-49.79-.1-4.38,2.13-7,5-9.65,52.4-49.29,113.6-80.39,185.51-88.41,98.34-11,183.15,19.46,256.14,85.24,5.07,4.56,7,9.33,7,16.14-.2,65.43-.05,130.87,0,196.3a6.94,6.94,0,0,1-.33,2A5.46,5.46,0,0,1,765.6,728.08Z"/><path class="cls-4" d="M580.06,828c-9.31-.16-17.4-3.65-25-8.82C543,811,537,811,524.84,819.13c-28,18.72-59.52,6.54-67.65-26.16-4.23-17-3.28-18.9,12.94-26.1a66.12,66.12,0,0,1,27.25-5.32h89.35c12,0,23.36,2.39,33.68,8.65,2.51,1.52,5.47,2.66,5.9,6.56C629.11,802.37,605.73,828.37,580.06,828Z"/><path class="cls-3" d="M517,671.64c-25.84,1.6-45.55,15.42-64.47,31.49q-42.37,36-85.68,70.89c-8.66,7-19.36,10.33-30.81,10.24-5.86,0-11.73-.1-17.6,0-12.64.22-16.2,3.87-16.57,16.8-12.37-6-19.25-17-27.42-29.78,9,0,16.49.64,23.85-.13,16.65-1.75,30.75-9.29,43.51-20,29.39-24.71,59.44-48.66,88.44-73.81,20.45-17.74,44.34-19.58,69.17-17.6C506.41,660.28,510.75,668.11,517,671.64Z"/><path class="cls-3" d="M743,874.59c-.24-4.07-1-7.07-6.38-7.26-26.51-.94-48.6-12.92-69.11-28.53-7.35-5.6-14.6-11.33-21.89-17,3.43-7.85,7.14-15.61,8.35-25.8,15,11.1,28.84,22.07,43.41,32,15.1,10.27,32.4,14.53,51.07,14.75C746.18,853.79,746.34,864.47,743,874.59Z"/><path class="cls-2" d="M799.4,556.81c16.73,20.94,29.13,42.37,40.59,64.4,1.87,3.6,1.15,6.27-1.15,9.27-11.75,15.35-24.09,30.16-39.44,44.27Z"/><path class="cls-3" d="M638.68,956.75c7-9.33,13.7-18.82,20.91-27.94,8.92-11.28,16.92-12.5,29.53-4.95,4.7,2.81,9.62,5.48,13.74,9,7.51,6.48,13.44,4.54,19.22-2.19,1.07-1.25,2.76-2,4.16-2.92-7,17.6-18.33,32.27-30.57,46.42-3,3.44-5.15,3.22-8.57.94-8.05-5.35-16.48-10.14-24.49-15.54s-15.75-6.57-23.82-.51C638.75,958.31,638.71,957.53,638.68,956.75Z"/><path class="cls-2" d="M281.08,673.25c-15.22-14.07-27-28.46-38.32-43.33-2.09-2.76-2.66-5.25-.89-8.39,5.93-10.51,11.48-21.24,17.63-31.62A218.67,218.67,0,0,1,281.08,559Z"/><path class="cls-6" d="M509.85,615.83h64.38c-4.22,6.63-8,13.6-12.76,19.8-10.35,13.47-28.53,13.46-38.86,0C517.85,629.42,514.07,622.46,509.85,615.83Z"/><path class="cls-7" d="M645.36,671.8,567,671.63c10.71-11.47,24.07-13.58,39.08-12.48C620.42,660.19,633.85,662.69,645.36,671.8Z"/><path class="cls-8" d="M422.66,577.71c-21.57-.07-40.61-10-57.48-24.46-6.64-5.7-7.13-13.49-1.75-20.47s12.47-8.42,20.25-4c3.59,2,6.83,4.65,10.24,7,19.36,13.29,39,14.06,59,1.42,4.95-3.13,9.82-6.45,15-9.06,7.68-3.84,14.36-1.45,19,5.25s4.46,14.56-1.9,19.67C467.32,567.33,447.76,578,422.66,577.71Z"/><path class="cls-8" d="M654.16,577.75c-18.1.18-37.2-10.64-54.85-24.39-6.52-5.07-6.92-12.74-2.45-19.6,4.74-7.27,11.67-9.58,19.74-5.41,4.58,2.37,8.82,5.38,13.2,8.12,21.41,13.42,40.75,12.91,61.66-1.64,2.83-2,5.53-4.16,8.51-5.88,7.82-4.5,16.4-2.87,21.06,4.23,4.85,7.38,4.16,14.8-2.54,20.48C701.49,568.06,682.37,577.72,654.16,577.75Z"/><path class="cls-9" d="M526.45,479.35c.07-11.66,6.13-19.09,15.57-19.1,9.73,0,15.69,7.67,15.61,20.11-.08,11.63-6.11,19-15.59,19C532.26,499.33,526.37,491.79,526.45,479.35Z"/></svg>