<svg class="bonus-icon" width="18" height="15" viewBox="0 0 18 15" fill="none" xmlns="http://www.w3.org/2000/svg">
    <path
        d="M12 6.1847e-06C12.7023 -7.73774e-05 13.3922 0.184738 14.0004 0.53587C14.6086 0.887002 15.1137 1.39207 15.4647 2.0003C15.8158 2.60853 16.0006 3.29847 16.0005 4.00075C16.0003 4.70304 15.8153 5.39291 15.464 6.00101L18 6.00001V8.00001H16V14C16 14.2652 15.8946 14.5196 15.7071 14.7071C15.5196 14.8946 15.2652 15 15 15H3C2.73478 15 2.48043 14.8946 2.29289 14.7071C2.10536 14.5196 2 14.2652 2 14V8.00001H0V6.00001L2.536 6.00101C2.03986 5.14189 1.88069 4.12906 2.08938 3.15918C2.29808 2.1893 2.85975 1.33157 3.66533 0.752558C4.47092 0.173543 5.46293 -0.0854441 6.44875 0.0258849C7.43456 0.137214 8.34383 0.610914 9 1.35501C9.37459 0.928388 9.83606 0.58678 10.3535 0.353084C10.8709 0.119389 11.4323 -0.000994248 12 6.1847e-06ZM10 8.00001H8V14H10V8.00001ZM6 2.00001C5.48102 1.99768 4.98145 2.19719 4.60685 2.55639C4.23224 2.91558 4.01193 3.40632 3.99246 3.92495C3.97299 4.44357 4.15588 4.94945 4.50249 5.33572C4.84911 5.722 5.3323 5.9584 5.85 5.99501L6 6.00001H8V4.00001C8.00002 3.52207 7.82889 3.05992 7.51759 2.69726C7.2063 2.33461 6.77542 2.09541 6.303 2.02301L6.149 2.00501L6 2.00001ZM12 2.00001C11.4954 1.99985 11.0094 2.19041 10.6395 2.5335C10.2695 2.87659 10.0428 3.34685 10.005 3.85001L10 4.00001V6.00001H12C12.5046 6.00017 12.9906 5.8096 13.3605 5.46651C13.7305 5.12342 13.9572 4.65316 13.995 4.15001L14 4.00001C14 3.46957 13.7893 2.96087 13.4142 2.58579C13.0391 2.21072 12.5304 2.00001 12 2.00001Z"
        fill="#198754"
    />
</svg>
