<svg width="24" height="24" viewBox="0 0 24 24" fill="none" xmlns="http://www.w3.org/2000/svg">
<path d="M21.2053 3.05352C21.0858 3.04632 20.9653 3.04445 20.8453 3.04445C14.9484 3.04161 9.05151 3.04285 3.15462 3.04819C1.47169 3.05165 0.807952 3.53672 0.431152 4.95005V19.0503C0.780486 20.3586 1.42102 20.8709 2.79462 20.9469C2.91409 20.9541 3.03462 20.9559 3.15462 20.9559C9.05222 20.9595 14.9491 20.9582 20.8453 20.9522C22.5282 20.9487 23.1906 20.4637 23.5688 19.0503V4.95005C23.2194 3.64179 22.5789 3.12952 21.2053 3.05352ZM21.6832 4.81779C18.9706 7.17032 16.3936 9.41965 13.7968 11.6474C13.2106 12.1522 12.6666 13.0786 12 13.0191C11.36 12.961 10.7768 12.1413 10.1885 11.6346C7.75169 9.53379 5.31844 7.42747 2.88875 5.31565C2.73835 5.18525 2.59729 5.04419 2.35542 4.81779H21.6832ZM22.121 18.0407C22.121 19.0938 21.9816 19.2295 20.9104 19.2314C14.9786 19.2333 9.04555 19.2333 3.11115 19.2314C2.00182 19.2295 1.87889 19.1029 1.87702 17.9719C1.87506 14.387 1.87506 10.8028 1.87702 7.21912V6.34872C4.92795 8.99459 7.81622 11.5007 10.7037 14.0053C12.0048 15.1327 12.0048 15.1309 13.2752 14.0287C16.0485 11.622 18.8238 9.21583 21.601 6.81032C21.7296 6.69805 21.86 6.58952 22.0138 6.46099C22.2056 6.79032 22.1168 7.09245 22.1168 7.37672C22.1246 10.9325 22.126 14.4871 22.121 18.0407Z" fill="white"/>
</svg>
