<svg width="24" height="24" viewBox="0 0 24 24" fill="none" xmlns="http://www.w3.org/2000/svg">
<path d="M23.0054 7.37905C23.0036 6.43675 22.719 6.13551 21.7898 6.05806C21.1281 6.0027 20.4628 6.0398 19.799 6.03421C18.5605 6.02361 18.5245 5.98886 18.5157 4.78596C18.5092 3.89254 18.5298 2.99913 18.5018 2.1063C18.4835 1.52207 18.3594 0.777951 17.7277 0.766762C13.8057 0.696089 1.27045 0.766762 1.27045 0.766762C0.778279 0.769706 0.753803 0.843029 0.750854 1.28561V20.487C0.852002 22.189 1.99706 22.9794 3.64845 22.9853C9.10334 23.0049 14.5582 23.0049 20.0131 22.9853C21.8285 22.9782 22.9915 21.8177 23.0021 20.0026C23.0254 15.795 23.0127 11.587 23.0054 7.37905ZM4.01058 21.3192C2.872 21.3103 2.33235 20.6213 2.3297 19.3571C2.32085 15.5555 2.32646 11.7543 2.32646 7.95297C2.32646 6.3116 2.34179 4.66994 2.31731 3.02857C2.30994 2.54447 2.37393 2.32185 2.95634 2.3245C7.28209 2.3513 11.6081 2.35718 15.9336 2.32038C16.6136 2.31478 16.5859 2.63575 16.5853 3.10101C16.5782 8.28365 16.5853 13.4681 16.5768 18.6519C16.5768 19.5468 16.6033 20.4319 16.9498 21.3315C12.5984 21.3324 8.30418 21.3524 4.01058 21.3192ZM21.3501 19.012C21.3501 19.2134 21.3611 19.4157 21.3469 19.6163C21.2758 20.6392 20.633 21.3242 19.7545 21.3224C18.8698 21.3206 18.2113 20.6451 18.1945 19.6068C18.165 17.7367 18.186 15.8671 18.1848 13.9957C18.1848 12.2116 18.2048 10.4271 18.1709 8.64379C18.1659 8.38171 18.1644 8.1962 18.1641 8.07252C18.1641 8.01785 18.1859 7.96542 18.2246 7.92676C18.2633 7.88811 18.3158 7.86639 18.3706 7.86639L21.0974 7.88229C21.1513 7.8829 21.2028 7.90453 21.2409 7.94255C21.2791 7.98057 21.3008 8.03197 21.3015 8.08577C21.3077 9.36612 21.3496 16.3759 21.3496 19.012H21.3501Z" fill="white"/>
<path d="M5.08505 10.2703C6.52706 10.2568 7.96937 10.2659 9.41139 10.2659C10.8825 10.2659 12.3536 10.2659 13.8247 10.2659C14.4145 10.2659 14.9848 10.1958 14.9627 9.4305C14.9427 8.71288 14.3824 8.68903 13.8356 8.68903C10.9227 8.69197 8.00948 8.69609 5.09625 8.68608C4.4932 8.68373 3.91994 8.76794 3.94618 9.50382C3.97272 10.1575 4.50942 10.2759 5.08505 10.2703Z" fill="white"/>
<path d="M13.8852 11.8351C10.9428 11.841 8.00005 11.8454 5.05763 11.8316C4.46785 11.8289 3.95415 11.9709 3.94412 12.6184C3.9338 13.2745 4.44544 13.4238 5.03728 13.4167C6.50849 13.399 7.9797 13.4108 9.45121 13.4108C10.9227 13.4108 12.3936 13.4055 13.8648 13.4135C14.429 13.4167 14.9595 13.3449 14.9657 12.637C14.9721 11.9361 14.4593 11.8339 13.8852 11.8351Z" fill="white"/>
<path d="M5.11029 16.5808C6.55201 16.5731 7.99402 16.5781 9.43604 16.5781C10.9068 16.5781 12.3774 16.5781 13.8479 16.5781C14.3926 16.5781 14.9546 16.5325 14.9629 15.8125C14.9723 15.0469 14.3861 14.988 13.8081 14.9865C10.9244 14.9836 8.04032 14.9883 5.15688 14.9824C4.5671 14.9824 3.96877 15.0566 3.94576 15.7695C3.92188 16.5022 4.51756 16.5823 5.11029 16.5808Z" fill="white"/>
<path d="M13.8244 18.1708C12.3535 18.1692 10.8828 18.1692 9.41225 18.1708C7.97053 18.1708 6.52822 18.1746 5.0865 18.169C4.53004 18.1664 3.96592 18.2362 3.94763 18.9181C3.92817 19.6408 4.49141 19.7662 5.09358 19.7656C8.00612 19.7621 10.9188 19.7612 13.8315 19.763C14.3785 19.763 14.9364 19.6988 14.9636 18.9988C14.9939 18.2238 14.405 18.1708 13.8244 18.1708Z" fill="white"/>
<path d="M7.3016 6.30327C8.01966 6.2965 8.73742 6.3015 9.45577 6.3015C10.1741 6.3015 10.8919 6.29296 11.6099 6.30445C12.18 6.31358 12.5999 6.10097 12.5943 5.49437C12.589 4.93664 12.195 4.72345 11.6565 4.7261C10.1917 4.73395 8.7271 4.73444 7.26267 4.72757C6.73187 4.7258 6.32639 4.92369 6.31902 5.48789C6.30899 6.10097 6.73629 6.30769 7.3016 6.30327Z" fill="white"/>
</svg>
