<svg width="24" height="24" viewBox="0 0 24 24" fill="none" xmlns="http://www.w3.org/2000/svg">
<path d="M21.9618 1.75526C21.9605 1.2238 22.021 0.273664 21.4877 0.276864H2.51008C2.07995 0.29313 2.03888 1.02806 2.03808 1.48193C2.02439 8.40762 2.02528 15.333 2.04075 22.2582C2.04422 23.4939 2.31728 23.7219 3.57008 23.7222C9.15888 23.7222 14.7479 23.7222 20.337 23.7222C21.7335 23.7222 21.9533 23.5131 21.9637 22.0758C21.9794 19.6766 21.9733 6.12913 21.9618 1.75526ZM19.6615 22.2158C17.1082 22.1878 14.5549 22.2035 12.0015 22.2035C9.44822 22.2035 6.89462 22.1883 4.34155 22.2155C3.79488 22.2211 3.60475 22.0937 3.62155 21.5137C3.66422 19.995 3.65755 18.4737 3.62422 16.9537C3.61275 16.4289 3.77862 16.2929 4.29088 16.2945C9.42866 16.3122 14.5658 16.3122 19.7023 16.2945C20.209 16.2929 20.3866 16.4161 20.3746 16.9486C20.3397 18.4686 20.3351 19.9886 20.3762 21.5086C20.3922 22.0817 20.2151 22.2219 19.6615 22.2158ZM19.6559 14.9161C17.1029 14.8894 14.5495 14.9043 11.9962 14.9043C9.44288 14.9043 6.88955 14.8889 4.33675 14.9166C3.78342 14.9227 3.60608 14.7833 3.62155 14.2099C3.66315 12.6915 3.64822 11.1699 3.62795 9.65126C3.62155 9.18726 3.67782 8.93393 4.25115 8.9358C9.41808 8.95589 14.5852 8.95704 19.7525 8.93926C20.2295 8.93793 20.3799 9.08913 20.3719 9.56566C20.3453 11.1153 20.3341 12.6665 20.377 14.2155C20.3927 14.7969 20.2007 14.9219 19.6559 14.9161V14.9161ZM19.6613 7.58833C17.1077 7.56033 14.5541 7.57606 12.0005 7.57606C9.44688 7.57606 6.89302 7.56086 4.33968 7.58806C3.79755 7.59393 3.60342 7.4782 3.61968 6.8926C3.66448 5.34353 3.65462 3.7918 3.62395 2.24193C3.61355 1.72326 3.77088 1.57233 4.29062 1.57526C9.42839 1.59304 14.5662 1.59304 19.7039 1.57526C20.2194 1.57366 20.3839 1.71793 20.3733 2.24033C20.3421 3.7902 20.333 5.34166 20.3773 6.891C20.3938 7.47153 20.2077 7.5942 19.6613 7.58833Z" fill="white"/>
<path d="M12.4547 3.91359C12.0637 3.91972 11.6685 3.88692 11.284 3.93732C10.9155 3.98505 10.7027 4.24079 10.724 4.63065C10.7424 4.97465 10.9373 5.18665 11.2808 5.23012C11.4428 5.24867 11.6057 5.25758 11.7688 5.25679C12.1507 5.25679 12.3021 5.25865 12.4512 5.25679C12.9253 5.24985 13.3072 5.10425 13.2744 4.54479C13.2451 4.05519 12.8971 3.90665 12.4547 3.91359Z" fill="white"/>
<path d="M12.0024 11.2314C11.673 11.2741 11.2536 11.1266 10.9312 11.4488C10.62 11.76 10.629 12.1013 10.9157 12.4114C11.2213 12.7424 12.761 12.7485 13.0773 12.42C13.3706 12.1154 13.3845 11.7725 13.0824 11.4568C12.7941 11.156 12.4096 11.2493 12.0024 11.2314Z" fill="white"/>
<path d="M12.7275 18.5926C12.2224 18.5126 11.7005 18.483 11.1992 18.6158C10.8813 18.7001 10.6997 18.939 10.7162 19.295C10.7309 19.6108 10.9128 19.8132 11.1901 19.8886C11.4474 19.9588 11.7253 19.9534 11.9184 19.9737C12.2384 19.9561 12.4869 19.9772 12.7184 19.922C13.0712 19.838 13.305 19.6193 13.2853 19.2145C13.2682 18.8532 13.04 18.642 12.7275 18.5926Z" fill="white"/>
</svg>
