<svg width="24" height="24" viewBox="0 0 24 24" fill="none" xmlns="http://www.w3.org/2000/svg">
<path d="M15 1.00001C15.7023 0.999907 16.3922 1.20418 17.0004 1.59227C17.6086 1.98036 18.1137 2.5386 18.4647 3.21085C18.8158 3.88311 19.0006 4.64567 19.0005 5.42188C19.0003 6.19809 18.8153 6.96058 18.464 7.63269L23 7.63159V9.8421H21V20.8947C21 21.1879 20.8946 21.469 20.7071 21.6763C20.5196 21.8835 20.2652 22 20 22H4C3.73478 22 3.48043 21.8835 3.29289 21.6763C3.10536 21.469 3 21.1879 3 20.8947V9.8421H1V7.63159L5.536 7.63269C5.03986 6.68314 4.88069 5.56369 5.08938 4.49172C5.29808 3.41975 5.85975 2.47173 6.66533 1.83177C7.47092 1.1918 8.46293 0.905562 9.44875 1.0286C10.4346 1.15165 11.3438 1.67521 12 2.49764C12.3746 2.02611 12.8361 1.64854 13.3535 1.39024C13.8709 1.13195 14.4323 0.998902 15 1.00001ZM13 9.8421H11V20.8947H13V9.8421ZM9 3.21053C8.48102 3.20796 7.98145 3.42847 7.60685 3.82548C7.23224 4.22248 7.01193 4.76488 6.99246 5.3381C6.97299 5.91131 7.15588 6.47044 7.50249 6.89737C7.84911 7.32431 8.3323 7.5856 8.85 7.62606L9 7.63159H11V5.42106C11 4.89281 10.8289 4.38201 10.5176 3.98118C10.2063 3.58035 9.77542 3.31598 9.303 3.23595L9.149 3.21606L9 3.21053ZM15 3.21053C14.4954 3.21036 14.0094 3.42098 13.6395 3.80018C13.2695 4.17939 13.0428 4.69915 13.005 5.25527L13 5.42106V7.63159H15C15.5046 7.63176 15.9906 7.42113 16.3605 7.04193C16.7305 6.66272 16.9572 6.14296 16.995 5.58685L17 5.42106C17 4.83478 16.7893 4.27254 16.4142 3.85797C16.0391 3.44342 15.5304 3.21053 15 3.21053Z" fill="white"/>
</svg>
