<?xml version="1.0" encoding="UTF-8"?> <svg xmlns="http://www.w3.org/2000/svg" width="19" height="24" viewBox="0 0 19 24" fill="none"><path d="M9.62455 7.22198C8.74855 7.22198 7.39255 6.22598 5.96455 6.26198C4.08055 6.28598 2.35255 7.35397 1.38055 9.04597C-0.57545 12.442 0.87655 17.458 2.78455 20.218C3.72055 21.562 4.82455 23.074 6.28855 23.026C7.69255 22.966 8.22055 22.114 9.92455 22.114C11.6165 22.114 12.0965 23.026 13.5845 22.99C15.0965 22.966 16.0565 21.622 16.9805 20.266C18.0485 18.706 18.4925 17.194 18.5166 17.11C18.4806 17.098 15.5766 15.982 15.5406 12.622C15.5166 9.81397 17.8326 8.46998 17.9405 8.40998C16.6206 6.47798 14.5925 6.26198 13.8845 6.21398C12.0365 6.06998 10.4885 7.22198 9.62455 7.22198ZM12.7445 4.38998C13.5245 3.45398 14.0405 2.14598 13.8965 0.849976C12.7805 0.897976 11.4365 1.59398 10.6325 2.52998C9.91255 3.35798 9.28855 4.68998 9.45655 5.96198C10.6925 6.05798 11.9646 5.32598 12.7445 4.38998Z" fill="#1D2129"></path></svg> 