<svg width="156" height="67" viewBox="0 0 156 67" fill="none" xmlns="http://www.w3.org/2000/svg">
<g clip-path="url(#clip0_34_60)">
<path d="M153.709 51.4603H71.9225C70.6572 51.4603 69.6315 52.4892 69.6315 53.7584V57.7582C69.6315 59.0274 70.6572 60.0563 71.9225 60.0563H153.709C154.974 60.0563 156 59.0274 156 57.7582V53.7584C156 52.4892 154.974 51.4603 153.709 51.4603Z" fill="#6DB85A"/>
<path d="M88.6101 53.1055C88.6108 53.0178 88.6459 52.9338 88.708 52.872C88.7701 52.8102 88.854 52.7755 88.9415 52.7755H89.9448C90.8165 52.7755 91.2465 53.2611 91.2465 54.152V56.9804C91.2465 57.8713 90.8165 58.3592 89.9448 58.3592H88.9415C88.8536 58.3592 88.7693 58.3242 88.7072 58.2619C88.6451 58.1996 88.6101 58.1151 88.6101 58.0269V53.1055ZM89.9283 57.5508C90.2056 57.5508 90.3724 57.407 90.3724 57.0087V54.1237C90.3724 53.7254 90.2056 53.5816 89.9283 53.5816H89.4842V57.5626L89.9283 57.5508Z" fill="white"/>
<path d="M94.3599 52.7755H94.9802C95.0587 52.7756 95.1346 52.8036 95.1944 52.8545C95.2542 52.9054 95.294 52.976 95.3068 53.0537L96.1034 57.9609C96.1112 58.0085 96.1087 58.0572 96.0959 58.1036C96.0831 58.1501 96.0603 58.1932 96.0293 58.23C95.9982 58.2668 95.9595 58.2963 95.9159 58.3166C95.8723 58.3369 95.8248 58.3474 95.7768 58.3475H95.5794C95.4999 58.3471 95.4232 58.3181 95.3632 58.2658C95.3033 58.2134 95.2641 58.1412 95.2528 58.0623L95.1353 57.2397V57.2562H94.4304C94.3511 57.2559 94.2744 57.2844 94.2144 57.3364C94.1544 57.3883 94.1151 57.4603 94.1038 57.539L94.0286 58.0623C94.0168 58.1414 93.9771 58.2137 93.9168 58.266C93.8564 58.3183 93.7794 58.3472 93.6996 58.3475H93.5657C93.5177 58.3474 93.4702 58.3369 93.4266 58.3166C93.383 58.2963 93.3443 58.2668 93.3132 58.23C93.2822 58.1932 93.2594 58.1501 93.2466 58.1036C93.2338 58.0572 93.2313 58.0085 93.2391 57.9609L94.0357 53.0537C94.0484 52.9764 94.0879 52.9061 94.1472 52.8553C94.2065 52.8044 94.2819 52.7761 94.3599 52.7755ZM94.6513 56.4996C94.6984 56.4993 94.745 56.489 94.7878 56.4693C94.8306 56.4496 94.8688 56.4209 94.8997 56.3852C94.9306 56.3495 94.9536 56.3076 94.9671 56.2623C94.9806 56.217 94.9842 56.1693 94.9779 56.1225L94.6419 53.7466H94.6278L94.2988 56.1225C94.2921 56.1694 94.2955 56.2172 94.3088 56.2627C94.3221 56.3082 94.3451 56.3502 94.3761 56.386C94.4071 56.4218 94.4454 56.4505 94.4884 56.4701C94.5314 56.4897 94.5782 56.4997 94.6254 56.4996H94.6513Z" fill="white"/>
<path d="M97.9996 57.0252V56.7164H98.8244V57.0983C98.8244 57.4966 99.0006 57.6404 99.2779 57.6404C99.5551 57.6404 99.729 57.4966 99.729 57.0818C99.729 56.6104 99.5551 56.3252 98.9841 55.8255C98.2534 55.1797 98.0161 54.7271 98.0161 54.0884C98.0161 53.2139 98.4696 52.7048 99.3178 52.7048C100.166 52.7048 100.587 53.2139 100.587 54.1049V54.3406H99.7619V54.0554C99.7619 53.657 99.6021 53.5062 99.3249 53.5062C99.0476 53.5062 98.8878 53.657 98.8878 54.0389C98.8878 54.4207 99.0711 54.746 99.6421 55.2409C100.373 55.8844 100.603 56.3299 100.603 57.0228C100.603 57.9303 100.133 58.437 99.2849 58.437C98.4367 58.437 97.9996 57.9161 97.9996 57.0252Z" fill="white"/>
<path d="M106.503 52.7755H107.124C107.202 52.7756 107.278 52.8036 107.338 52.8545C107.398 52.9054 107.437 52.976 107.45 53.0537L108.247 57.9609C108.255 58.0085 108.252 58.0572 108.239 58.1036C108.226 58.1501 108.204 58.1932 108.173 58.23C108.142 58.2668 108.103 58.2963 108.059 58.3166C108.016 58.3369 107.968 58.3474 107.92 58.3475H107.723C107.643 58.3471 107.567 58.3181 107.507 58.2658C107.447 58.2134 107.407 58.1412 107.396 58.0623L107.279 57.2397V57.2562H106.574C106.494 57.2559 106.418 57.2844 106.358 57.3364C106.298 57.3883 106.258 57.4603 106.247 57.539L106.172 58.0623C106.16 58.1412 106.12 58.2132 106.06 58.2654C105.999 58.3177 105.923 58.3467 105.843 58.3475H105.709C105.661 58.3474 105.614 58.3369 105.57 58.3166C105.526 58.2963 105.488 58.2668 105.457 58.23C105.425 58.1932 105.403 58.1501 105.39 58.1036C105.377 58.0572 105.375 58.0085 105.382 57.9609L106.179 53.0537C106.192 52.9764 106.231 52.9061 106.291 52.8553C106.35 52.8044 106.425 52.7761 106.503 52.7755ZM106.795 56.4996C106.842 56.4993 106.888 56.489 106.931 56.4693C106.974 56.4496 107.012 56.4209 107.043 56.3852C107.074 56.3495 107.097 56.3076 107.11 56.2623C107.124 56.217 107.128 56.1693 107.121 56.1225L106.783 53.7466H106.766L106.44 56.1225C106.433 56.1694 106.436 56.2172 106.45 56.2627C106.463 56.3082 106.486 56.3502 106.517 56.386C106.548 56.4218 106.586 56.4505 106.629 56.4701C106.672 56.4897 106.719 56.4997 106.766 56.4996H106.795Z" fill="white"/>
<path d="M110.307 53.1055C110.308 53.0178 110.343 52.9338 110.405 52.872C110.467 52.8102 110.551 52.7755 110.639 52.7755H111.595C112.467 52.7755 112.894 53.2611 112.894 54.152V54.7012C112.894 55.5921 112.467 56.0777 111.595 56.0777H111.182V58.0151C111.182 58.1033 111.147 58.1878 111.084 58.2501C111.022 58.3124 110.938 58.3475 110.85 58.3475H110.639C110.551 58.3475 110.467 58.3124 110.404 58.2501C110.342 58.1878 110.307 58.1033 110.307 58.0151V53.1055ZM111.595 55.281C111.872 55.281 112.023 55.1537 112.023 54.7578V54.0954C112.023 53.6971 111.872 53.5698 111.595 53.5698H111.182V55.281H111.595Z" fill="white"/>
<path d="M114.906 57.0252V54.0954C114.906 53.2045 115.376 52.6954 116.231 52.6954C117.086 52.6954 117.556 53.2045 117.556 54.0954V57.0252C117.556 57.9161 117.086 58.4252 116.231 58.4252C115.376 58.4252 114.906 57.9161 114.906 57.0252ZM116.682 57.0818V54.0412C116.682 53.6429 116.508 53.4921 116.231 53.4921C115.954 53.4921 115.778 53.6429 115.778 54.0412V57.0818C115.778 57.4777 115.954 57.6309 116.231 57.6309C116.508 57.6309 116.682 57.4777 116.682 57.0818Z" fill="white"/>
<path d="M119.579 57.0252V56.7164H120.411V57.0983C120.411 57.4966 120.587 57.6404 120.865 57.6404C121.142 57.6404 121.318 57.4966 121.318 57.0818C121.318 56.6104 121.142 56.3252 120.571 55.8255C119.84 55.1797 119.603 54.7271 119.603 54.0884C119.603 53.2139 120.056 52.7048 120.905 52.7048C121.753 52.7048 122.173 53.2139 122.173 54.1049V54.3406H121.351V54.0554C121.351 53.657 121.191 53.5062 120.914 53.5062C120.637 53.5062 120.477 53.657 120.477 54.0389C120.477 54.4207 120.66 54.746 121.231 55.2409C121.962 55.8844 122.192 56.3299 122.192 57.0228C122.192 57.9303 121.722 58.437 120.874 58.437C120.026 58.437 119.579 57.9161 119.579 57.0252Z" fill="white"/>
<path d="M124.622 53.5698H124.37C124.283 53.5698 124.2 53.5351 124.138 53.4732C124.076 53.4113 124.042 53.3274 124.042 53.2398V53.1055C124.042 53.018 124.076 52.9341 124.138 52.8722C124.2 52.8103 124.283 52.7755 124.37 52.7755H126.408C126.495 52.7755 126.579 52.8102 126.641 52.872C126.703 52.9338 126.738 53.0178 126.739 53.1055V53.2398C126.738 53.3276 126.703 53.4115 126.641 53.4733C126.579 53.5351 126.495 53.5698 126.408 53.5698H126.156C126.068 53.5698 125.984 53.6048 125.922 53.6672C125.86 53.7295 125.825 53.814 125.825 53.9022V58.0151C125.825 58.1029 125.79 58.187 125.729 58.2493C125.667 58.3115 125.583 58.3468 125.496 58.3475H125.285C125.197 58.3475 125.112 58.3124 125.05 58.2501C124.988 58.1878 124.953 58.1033 124.953 58.0151V53.9022C124.953 53.814 124.918 53.7295 124.856 53.6672C124.794 53.6048 124.71 53.5698 124.622 53.5698Z" fill="white"/>
<path d="M129.34 52.7755H129.96C130.039 52.7756 130.115 52.8036 130.175 52.8545C130.234 52.9054 130.274 52.976 130.287 53.0537L131.084 57.9609C131.091 58.0085 131.089 58.0572 131.076 58.1036C131.063 58.1501 131.041 58.1932 131.009 58.23C130.978 58.2668 130.94 58.2963 130.896 58.3166C130.853 58.3369 130.805 58.3474 130.757 58.3475H130.56C130.48 58.3476 130.403 58.3188 130.343 58.2664C130.283 58.2139 130.244 58.1414 130.233 58.0623L130.113 57.2397V57.2562H129.408C129.329 57.2559 129.252 57.2844 129.192 57.3364C129.132 57.3883 129.093 57.4603 129.082 57.539L129.004 58.0623C128.993 58.1412 128.954 58.2134 128.894 58.2658C128.834 58.3181 128.757 58.3471 128.678 58.3475H128.544C128.496 58.3474 128.448 58.3369 128.404 58.3166C128.361 58.2963 128.322 58.2668 128.291 58.23C128.26 58.1932 128.237 58.1501 128.225 58.1036C128.212 58.0572 128.209 58.0085 128.217 57.9609L129.014 53.0537C129.026 52.976 129.066 52.9054 129.126 52.8545C129.186 52.8036 129.262 52.7756 129.34 52.7755ZM129.631 56.4996C129.679 56.4993 129.725 56.489 129.768 56.4693C129.811 56.4496 129.849 56.4209 129.88 56.3852C129.911 56.3495 129.934 56.3076 129.947 56.2623C129.961 56.217 129.964 56.1693 129.958 56.1225L129.622 53.7466H129.606L129.277 56.1225C129.27 56.1695 129.274 56.2174 129.288 56.2629C129.301 56.3083 129.324 56.3504 129.356 56.3861C129.387 56.4218 129.425 56.4504 129.468 56.47C129.512 56.4896 129.558 56.4997 129.606 56.4996H129.631Z" fill="white"/>
<path d="M132.977 57.0252V56.7164H133.805V57.0983C133.805 57.4966 133.978 57.6404 134.258 57.6404C134.538 57.6404 134.709 57.4966 134.709 57.0818C134.709 56.6104 134.535 56.3252 133.964 55.8255C133.234 55.1797 132.996 54.7271 132.996 54.0884C132.996 53.2139 133.447 52.7048 134.298 52.7048C135.149 52.7048 135.567 53.2139 135.567 54.1049V54.3406H134.744V54.0554C134.744 53.657 134.585 53.5062 134.307 53.5062C134.03 53.5062 133.87 53.657 133.87 54.0389C133.87 54.4207 134.054 54.746 134.625 55.2409C135.355 55.8844 135.583 56.3299 135.583 57.0228C135.583 57.9303 135.125 58.437 134.267 58.437C133.41 58.437 132.977 57.9161 132.977 57.0252Z" fill="white"/>
<path d="M69.6315 38.2493V17.3027C69.6315 10.9388 72.8083 7.28311 78.9387 7.28311C85.0691 7.28311 88.2436 10.927 88.2436 17.3027V19.7116C88.2439 19.8424 88.2185 19.972 88.1688 20.0929C88.1191 20.2139 88.0461 20.3238 87.954 20.4164C87.8619 20.509 87.7525 20.5825 87.632 20.6326C87.5116 20.6828 87.3824 20.7086 87.252 20.7086H83.335C83.2048 20.7083 83.0759 20.6822 82.9557 20.632C82.8356 20.5817 82.7264 20.5082 82.6346 20.4156C82.5427 20.323 82.4699 20.2132 82.4204 20.0924C82.3708 19.9716 82.3455 19.8422 82.3458 19.7116V16.8832C82.3458 14.0383 81.0957 12.9564 79.1102 12.9564C77.1247 12.9564 75.8747 14.0383 75.8747 16.8832V38.6854C75.8747 41.5326 77.1247 42.5579 79.1102 42.5579C81.0957 42.5579 82.3458 41.5515 82.3458 38.7042V31.9019C82.3458 31.6381 82.2413 31.3852 82.0554 31.1986C81.8694 31.0121 81.6172 30.9073 81.3542 30.9073H80.2146C80.0844 30.9073 79.9555 30.8816 79.8351 30.8316C79.7148 30.7816 79.6055 30.7083 79.5135 30.616C79.4214 30.5236 79.3483 30.4139 79.2985 30.2933C79.2487 30.1726 79.223 30.0433 79.223 29.9126V26.2098C79.223 25.946 79.3275 25.693 79.5135 25.5065C79.6994 25.3199 79.9516 25.2151 80.2146 25.2151H87.2638C87.5267 25.2151 87.779 25.3199 87.9649 25.5065C88.1509 25.693 88.2553 25.946 88.2553 26.2098V38.2493C88.2553 44.625 85.0785 48.2689 78.9505 48.2689C72.8224 48.2689 69.6315 44.625 69.6315 38.2493Z" fill="#F7F2F7"/>
<path d="M91.9327 38.2493V8.8458C91.9327 8.71518 91.9583 8.58584 92.0081 8.46517C92.058 8.34449 92.131 8.23484 92.2231 8.14248C92.3152 8.05012 92.4245 7.97685 92.5448 7.92686C92.6651 7.87688 92.794 7.85115 92.9242 7.85115H97.1819C97.3121 7.85115 97.4411 7.87688 97.5614 7.92686C97.6817 7.97685 97.791 8.05012 97.8831 8.14248C97.9751 8.23484 98.0482 8.34449 98.098 8.46517C98.1479 8.58584 98.1735 8.71518 98.1735 8.8458V38.7042C98.1735 41.5515 99.3672 42.5768 101.353 42.5768C103.338 42.5768 104.529 41.5515 104.529 38.7042V8.8458C104.529 8.71518 104.555 8.58584 104.605 8.46517C104.655 8.34449 104.728 8.23484 104.82 8.14248C104.912 8.05012 105.021 7.97685 105.142 7.92686C105.262 7.87688 105.391 7.85115 105.521 7.85115H109.553C109.816 7.85177 110.067 7.95684 110.253 8.14331C110.438 8.32977 110.542 8.58241 110.542 8.8458V38.2493C110.542 44.625 107.366 48.2689 101.238 48.2689C95.1095 48.2689 91.9327 44.625 91.9327 38.2493Z" fill="#F7F2F7"/>
<path d="M114.856 8.8458C114.856 8.71518 114.882 8.58584 114.932 8.46517C114.982 8.34449 115.055 8.23484 115.147 8.14248C115.239 8.05012 115.348 7.97685 115.469 7.92686C115.589 7.87688 115.718 7.85115 115.848 7.85115H124.107C130.576 7.85115 133.358 10.8681 133.358 17.0175V19.4759C133.358 23.5747 132.052 26.1933 129.272 27.3317V27.4449C132.392 28.4136 133.415 31.374 133.415 35.8711V42.8738C133.415 44.288 133.445 45.4146 133.701 46.4988C133.734 46.6442 133.735 46.7953 133.702 46.9407C133.668 47.0861 133.603 47.2221 133.51 47.3386C133.417 47.4551 133.299 47.5491 133.165 47.6134C133.031 47.6778 132.884 47.7109 132.735 47.7103H128.466C128.252 47.7117 128.044 47.6436 127.872 47.5161C127.7 47.3886 127.574 47.2087 127.512 47.0032C127.303 46.2396 127.171 45.285 127.171 42.8266V35.5176C127.171 31.8171 126.093 30.6221 123.257 30.6221H122.082C121.819 30.6221 121.567 30.7269 121.381 30.9134C121.195 31.1 121.09 31.353 121.09 31.6168V46.7015C121.091 46.8322 121.065 46.9617 121.015 47.0825C120.966 47.2034 120.893 47.3131 120.801 47.4056C120.708 47.498 120.599 47.5712 120.479 47.6211C120.358 47.671 120.229 47.6965 120.099 47.6962H115.848C115.718 47.6965 115.589 47.671 115.468 47.6211C115.348 47.5712 115.238 47.498 115.146 47.4056C115.054 47.3131 114.981 47.2034 114.931 47.0825C114.882 46.9617 114.856 46.8322 114.856 46.7015V8.8458ZM123.37 24.93C125.696 24.93 127.115 23.9047 127.115 20.718V17.6539C127.115 14.809 126.152 13.5551 123.938 13.5551H122.091C121.961 13.5551 121.832 13.5809 121.711 13.631C121.591 13.6812 121.481 13.7546 121.389 13.8472C121.297 13.9399 121.224 14.0498 121.174 14.1707C121.125 14.2917 121.099 14.4213 121.1 14.5521V23.9471C121.1 24.2109 121.204 24.4639 121.39 24.6504C121.576 24.8369 121.828 24.9417 122.091 24.9417L123.37 24.93Z" fill="#F7F2F7"/>
<path d="M137.386 38.2493V8.8458C137.386 8.71518 137.411 8.58584 137.461 8.46517C137.511 8.34449 137.584 8.23484 137.676 8.14248C137.768 8.05012 137.877 7.97685 137.998 7.92686C138.118 7.87688 138.247 7.85115 138.377 7.85115H142.637C142.767 7.85115 142.896 7.87688 143.017 7.92686C143.137 7.97685 143.246 8.05012 143.338 8.14248C143.43 8.23484 143.503 8.34449 143.553 8.46517C143.603 8.58584 143.629 8.71518 143.629 8.8458V38.7042C143.629 41.5515 144.82 42.5768 146.806 42.5768C148.791 42.5768 149.985 41.5515 149.985 38.7042V8.8458C149.985 8.71518 150.01 8.58584 150.06 8.46517C150.11 8.34449 150.183 8.23484 150.275 8.14248C150.367 8.05012 150.477 7.97685 150.597 7.92686C150.717 7.87688 150.846 7.85115 150.976 7.85115H155.008C155.139 7.85115 155.268 7.87688 155.388 7.92686C155.508 7.97685 155.617 8.05012 155.71 8.14248C155.802 8.23484 155.875 8.34449 155.925 8.46517C155.974 8.58584 156 8.71518 156 8.8458V38.2493C156 44.625 152.821 48.2689 146.693 48.2689C140.565 48.2689 137.386 44.625 137.386 38.2493Z" fill="#F7F2F7"/>
<path d="M32.9407 66.9882C32.7597 66.7832 32.4942 66.7808 32.2616 66.6983C29.9579 65.9372 27.9813 64.4118 26.6575 62.3732C26.4226 62.022 26.2604 61.9513 25.9174 62.2129C25.5675 62.4664 25.2017 62.697 24.8224 62.9035C24.5475 63.0841 24.2184 63.1626 23.8919 63.1256C23.5654 63.0886 23.2621 62.9383 23.0343 62.7008C21.9227 61.6328 21.0023 60.3811 20.3133 59.0003C20.0172 58.4111 20.224 57.9609 20.7034 57.5862C21.3378 57.2656 21.8477 57.4141 22.2166 58.0575C22.6318 58.8212 23.1097 59.5489 23.6452 60.2331C23.9859 60.6502 24.3078 60.7917 24.7942 60.4193C25.1786 60.1361 25.5821 59.8802 26.002 59.6532C26.8197 59.196 27.393 59.3421 27.83 60.1859C28.4948 61.4903 29.4549 62.6204 30.6333 63.4857C30.9669 63.7214 31.3382 63.9218 31.6765 64.148C32.8843 64.9471 34.0803 64.7726 35.2857 64.1315C36.9124 63.2876 38.2497 61.974 39.1251 60.3603C39.223 60.1418 39.3494 59.9373 39.5011 59.7522C39.9969 59.302 40.5185 59.3492 41.0519 59.6768C41.4936 59.9479 41.9448 60.2118 42.3701 60.5088C42.7296 60.7587 42.9857 60.7162 43.2653 60.398C43.9503 59.612 44.5186 58.7308 44.9524 57.7818C45.4467 56.745 45.7871 55.6412 45.9628 54.5056C46.0649 54.0384 46.1433 53.5664 46.1978 53.0914C46.2283 52.8297 46.1531 52.6812 45.8641 52.66C44.2593 52.5327 42.974 51.7172 41.7803 50.7179C41.4701 50.4562 41.1435 50.0108 40.784 50.065C40.4245 50.1192 40.4551 50.7509 40.2201 51.0761C40.1751 51.1512 40.1366 51.2301 40.105 51.3118C38.7468 53.5651 36.2444 54.3241 33.8453 53.1974C33.7284 53.121 33.5935 53.0767 33.4542 53.0688C33.3148 53.061 33.1759 53.0899 33.0511 53.1526C30.9881 54.2675 28.4668 53.7985 26.8455 51.5711C26.6368 51.2168 26.4583 50.8454 26.3121 50.461C26.1993 50.131 26.0443 50.1263 25.7928 50.3195C25.431 50.5953 25.0762 50.8805 24.7237 51.1633C23.7618 51.984 22.5783 52.4992 21.3237 52.6435C20.896 52.6859 20.8302 52.8981 20.8843 53.2493C20.9808 53.6949 21.018 54.1515 20.9947 54.6069C20.9289 55.1938 20.6258 55.4908 20.0548 55.5214C19.2536 55.4413 18.9881 55.182 18.88 54.4089C18.7977 53.7631 18.6873 53.122 18.6192 52.4738C18.6095 52.3669 18.5663 52.2657 18.4958 52.1849C18.4253 52.104 18.3311 52.0476 18.2268 52.0236C16.4574 51.3165 15.4705 49.8293 14.5847 48.2784C14.0396 47.3356 14.7421 46.1783 15.83 46.0958C15.9383 46.1006 16.0468 46.0959 16.1543 46.0816C16.5044 45.9968 17.0801 46.3174 17.1717 45.8789C17.2869 45.318 17.3597 44.7004 16.7582 44.1748C12.3078 40.2457 9.5704 35.3055 8.63991 29.453C6.49932 15.9899 15.0499 3.65805 28.0791 0.697663C28.394 0.624596 28.7159 0.57982 29.0354 0.535037C29.6675 0.443114 30.0881 0.685881 30.2455 1.32698C30.41 2.03408 30.1281 2.47012 29.3057 2.64926C28.2042 2.88313 27.1156 3.17422 26.0443 3.52135C23.3393 4.43583 20.8289 5.85001 18.6427 7.69088C21.1921 7.17941 23.7345 6.807 26.3239 6.873C27.8794 6.91307 29.4419 6.77636 30.9951 6.99321C31.4929 7.04772 31.9957 6.95342 32.4402 6.72215C35.2348 5.41353 38.1455 4.37032 41.1341 3.6062C39.6112 3.04604 38.0287 2.66481 36.4183 2.47013C35.4735 2.34707 34.5229 2.27468 33.5704 2.25328C32.7363 2.25328 32.3955 1.87852 32.3955 1.1455C32.6188 0.313478 32.8373 0.115491 33.6432 0.136704C42.2197 0.344119 49.0104 3.97154 54.0623 10.9058C54.5534 11.5776 54.5181 11.8486 53.9753 12.5156C53.4631 12.8833 53.1059 12.8786 52.6477 12.4826C52.3988 12.2406 52.1781 11.971 51.9898 11.6789C50.2902 9.3868 48.2005 7.41359 45.8171 5.85006C45.4725 5.59455 45.0752 5.4196 44.6544 5.33804C44.2336 5.25647 43.7999 5.27035 43.3852 5.37866C36.806 6.939 30.6967 9.51283 25.4333 13.8851C21.0356 17.5354 17.591 22.2058 15.3977 27.492C14.3587 29.982 13.5967 32.5794 13.1255 35.2371C13.0633 35.4545 13.0521 35.6834 13.0928 35.9059C13.1336 36.1284 13.2252 36.3383 13.3605 36.5193C13.5738 36.2769 13.7533 36.0065 13.8939 35.7156C16.3399 31.6757 19.6131 28.5173 23.8614 26.4431C25.1114 25.8327 26.3145 25.1539 27.5152 24.4586C31.1126 22.3703 35.0343 21.2413 39.111 20.5931C41.1324 20.2778 43.1747 20.1171 45.2203 20.1123C47.7763 20.0883 50.3301 20.2712 52.8569 20.6591C53.7357 20.7958 54.6145 20.9301 55.4862 21.1093C56.1018 21.2342 56.1159 21.2106 55.989 20.5695C55.6858 19.0986 55.2331 17.6628 54.638 16.2845C54.4733 15.9521 54.3888 15.5856 54.3912 15.2144C54.4124 14.776 54.5698 14.4555 55.0468 14.3824C55.8951 14.2575 56.1441 14.4013 56.4942 15.2073C58.3917 19.5216 59.0305 24.2872 58.3364 28.951C57.4388 35.058 54.6849 40.1514 50.0866 44.2243C49.5179 44.7287 49.5978 45.2638 49.5908 45.8507C49.5908 46.1264 49.7999 46.0722 49.9644 46.0864C50.3544 46.0864 50.7445 46.0864 51.1392 46.0864C52.3352 46.1453 53.0378 47.3639 52.4175 48.3844C51.5011 49.8929 50.526 51.3684 48.7684 52.0378C48.4488 52.158 48.4582 52.3913 48.4183 52.6553C48.1621 54.4113 47.9483 56.1743 47.2669 57.8407C46.5577 59.595 45.5109 61.192 44.1864 62.5406C43.4815 63.2477 42.887 63.3113 42.0364 62.7928C41.5947 62.5241 41.1271 62.0267 40.7112 62.0668C40.3752 62.0998 40.112 62.7904 39.7995 63.1746C38.3358 64.9719 36.343 66.2589 34.1061 66.8515C34.0074 66.8798 33.8829 66.8515 33.85 66.9953L32.9407 66.9882Z" fill="#010101"/>
<path d="M55.0397 14.3824C54.4429 14.8939 54.356 15.2286 54.6849 15.9734C55.3542 17.5198 55.8667 19.1299 56.2146 20.7793C56.3062 21.1894 56.3979 21.4722 55.7047 21.3308C52.1653 20.5925 48.5553 20.2495 44.9407 20.3079C39.1768 20.4257 33.5727 21.3827 28.4668 24.1899C25.9385 25.5805 23.2645 26.7236 20.896 28.4018C17.9353 30.5066 15.4765 33.2435 13.6965 36.4156L13.4051 36.9176C12.4887 35.9961 12.9939 34.9708 13.196 34.0374C14.822 26.495 18.4241 20.0439 24.1104 14.8232C28.5514 10.7479 33.7701 8.03736 39.4987 6.27197C41.0213 5.80057 42.5651 5.41402 44.1206 5.0699C44.2946 5.02729 44.4755 5.02143 44.6519 5.05267C44.8282 5.08391 44.9962 5.15158 45.1451 5.25138C48.0116 6.9399 50.4892 9.21799 52.4151 11.9358C52.9532 12.6877 53.1318 12.7561 53.9871 12.5156L55.0397 14.3824Z" fill="#6DB85A"/>
<path d="M32.4073 1.15492C32.5906 1.89031 33.0793 2.09772 33.8171 2.11186C36.5039 2.13549 39.1645 2.64324 41.6722 3.61092C40.5538 3.94561 39.5034 4.25909 38.4555 4.57964C36.4734 5.1806 34.5421 5.93881 32.6799 6.84708C32.0954 7.12837 31.445 7.24255 30.8001 7.17705C26.6575 6.8895 22.5385 6.95314 18.4782 7.96193C18.3625 7.97336 18.246 7.97336 18.1304 7.96193C18.7978 7.30266 19.5299 6.71277 20.3156 6.20125C22.97 4.36527 25.9778 3.10641 29.1459 2.50548C29.9753 2.34285 30.1539 2.16608 30.2549 1.32699L32.4073 1.15492Z" fill="#6DB85A"/>
<path d="M39.581 59.8206C38.6508 61.8481 37.0374 63.4815 35.0249 64.4332C33.8947 64.9706 32.889 64.9706 31.787 64.3837C30.0742 63.5192 28.6766 62.1353 27.7924 60.4287C27.2779 59.4293 26.8643 59.3185 25.8962 59.9149C25.5132 60.1168 25.1471 60.3493 24.8013 60.6102C24.2773 61.0604 23.9436 60.9095 23.5724 60.4075C23.0545 59.7683 22.5989 59.0809 22.2119 58.3545C21.897 57.6946 21.4341 57.3952 20.7033 57.5885L20.0548 55.5167C20.7245 55.3046 20.9524 54.8426 20.842 54.1638C20.755 53.6335 20.6939 53.0984 20.607 52.4974C22.9567 52.6105 24.5357 51.0714 26.2463 49.7444C26.3943 50.3416 26.6211 50.9163 26.9207 51.4532C25.9432 52.2805 24.9493 53.0772 23.7815 53.6335C23.5946 53.7243 23.428 53.8521 23.2917 54.0093C23.1555 54.1665 23.0524 54.3497 22.9887 54.548C22.925 54.7463 22.9021 54.9554 22.9212 55.1628C22.9403 55.3702 23.0012 55.5716 23.1001 55.7548C23.5458 56.5515 24.0949 57.2855 24.7331 57.9373C24.8486 58.0682 25.0076 58.1526 25.1805 58.1747C25.3534 58.1968 25.5284 58.1552 25.673 58.0575C26.056 57.8548 26.4249 57.6286 26.8056 57.4212C27.487 57.0511 27.9569 57.136 28.4927 57.6993C28.6393 57.8601 28.7714 58.0336 28.8874 58.2178C30.0623 59.9549 31.6718 61.1028 33.6033 61.8429C34.1881 62.0798 34.8391 62.0941 35.4337 61.883C36.6813 61.4894 37.8402 60.8553 38.8455 60.0162C39.0523 59.8371 39.2614 59.6226 39.5833 59.665C39.5945 59.6747 39.6035 59.6867 39.6095 59.7003C39.6156 59.7138 39.6186 59.7285 39.6184 59.7434C39.6182 59.7582 39.6147 59.7728 39.6082 59.7861C39.6018 59.7995 39.5925 59.8112 39.581 59.8206Z" fill="#EFEDEF"/>
<path d="M47.5207 45.3133C46.226 44.4506 45.1169 43.3546 43.9021 42.3953C43.2747 41.898 42.6638 41.3794 42.0623 40.8538C40.7652 39.7225 39.3061 39.013 37.5555 39.0366C37.5085 38.8197 37.6777 38.7019 37.7176 38.5393C37.7971 38.321 37.795 38.0813 37.7116 37.8646C37.6282 37.6478 37.4692 37.4688 37.2642 37.3608C37.0691 37.2371 36.8344 37.1926 36.6079 37.2364C36.3813 37.2802 36.1799 37.4089 36.0446 37.5965C35.859 37.8015 35.7086 38.0396 35.5418 38.2611C35.3242 38.4016 35.0698 38.4738 34.811 38.4686H32.2405C31.9817 38.4738 31.7273 38.4016 31.5097 38.2611C31.3805 38.0914 31.2512 37.9194 31.1243 37.7473C30.7413 37.2311 30.2526 37.0897 29.778 37.3631C29.3033 37.6365 29.1741 38.1291 29.4255 38.7184C29.4584 38.7962 29.4983 38.8716 29.5688 39.013C28.1217 39.0033 26.7138 39.4851 25.5743 40.3801C24.7778 41.0118 24.0047 41.6788 23.2246 42.3293L19.3734 45.549C19.2019 45.45 19.2418 45.3298 19.2418 45.2331C19.2418 42.2115 19.2418 39.1906 19.2418 36.1705C19.2475 36.0411 19.26 35.912 19.2794 35.7839C19.9044 34.6455 20.8631 33.7781 21.7725 32.8943C22.638 32.043 23.547 31.2374 24.4958 30.4807C26.5142 28.8874 28.8569 28.2203 31.3405 27.9092C34.7148 27.4942 38.1373 28.0492 41.2093 29.5096C42.867 30.2697 44.3969 31.2835 45.7443 32.5148C46.2348 32.9086 46.7009 33.3321 47.14 33.7828C47.4172 34.0617 47.5785 34.4358 47.5911 34.8294C47.5911 38.2423 47.5911 41.6544 47.5911 45.0658C47.5956 45.1538 47.5708 45.2409 47.5207 45.3133Z" fill="#F9BC87"/>
<path d="M39.581 59.6721C38.3168 60.6573 37.0315 61.5813 35.4596 62.0597C34.8265 62.2668 34.1403 62.2392 33.5258 61.982C31.5073 61.1853 29.8273 59.962 28.6383 58.1023C28.0721 57.2137 27.5575 57.1289 26.681 57.6781C26.3709 57.8713 26.0466 58.0434 25.7411 58.232C25.3558 58.4677 25.001 58.4512 24.6908 58.1094C24.0462 57.4397 23.4816 56.697 23.0084 55.8962C22.8833 55.6811 22.806 55.4414 22.7817 55.1936C22.7574 54.9457 22.7868 54.6955 22.8678 54.4601C22.9488 54.2247 23.0795 54.0096 23.2509 53.8295C23.4224 53.6494 23.6306 53.5086 23.8614 53.4166C24.7735 52.9711 25.617 52.3964 26.3662 51.7102C26.4349 51.6272 26.5217 51.5611 26.6199 51.517C26.718 51.4729 26.825 51.4519 26.9324 51.4556C28.4551 53.6099 31.1619 54.1567 33.1756 52.8957C33.2451 52.8468 33.3286 52.822 33.4134 52.825C33.4982 52.8279 33.5797 52.8586 33.6456 52.9122C35.7603 54.1991 38.58 53.5415 40.011 51.201C40.5232 51.2458 40.8616 51.6112 41.2164 51.9081C42.5275 52.9994 43.9679 53.7796 45.6996 53.9092C46.1014 53.9399 46.233 54.1449 46.1085 54.5173C45.9886 55.6901 45.6329 56.8263 45.0629 57.8572C44.3579 58.7552 44.2522 58.7741 43.263 58.1518C41.7145 57.1807 41.6816 57.1972 40.5631 58.6609C40.2859 59.0286 40.0204 59.4482 39.581 59.6721Z" fill="#FAF8F9"/>
<path d="M32.9031 24.3478C34.4373 23.7608 36.0212 23.3135 37.6354 23.0114C40.3514 22.4695 43.1162 22.212 45.8853 22.243C49.3434 22.2839 52.7891 22.6668 56.1723 23.3861C56.466 23.4474 56.6164 23.5653 56.6282 23.8976C56.8044 28.2793 56.0407 32.6421 53.5618 36.9365C48.9798 29.0594 42.3607 24.5151 32.9031 24.3478Z" fill="#6DB85A"/>
<path d="M11.4596 32.5006C10.435 29.4709 10.0735 26.2552 10.3998 23.0727C10.7852 19.1145 12.1759 15.3215 14.439 12.056C14.787 11.5112 15.2941 11.0873 15.8911 10.8422C17.9395 10.0405 20.0833 9.50968 22.2683 9.26301C24.3172 8.99195 26.3685 8.98723 28.636 9.01552C24.2608 11.7638 20.6352 15.0706 17.7075 19.1341C14.8234 23.1665 12.7054 27.6977 11.4596 32.5006Z" fill="#6DB85A"/>
<path d="M39.9945 41.7801C41.4678 42.8125 42.7695 44.0617 44.177 45.1789C44.6352 45.5419 45.1005 45.9025 45.5234 46.3056C46.8275 47.5477 48.3125 48.2807 50.1852 48.0073C49.2454 50.4115 46.2307 51.3071 44.1018 49.7986C42.8095 48.8888 41.5688 47.913 40.3423 46.9066C39.166 45.9262 37.6744 45.4085 36.1457 45.45C34.3482 45.4759 32.5483 45.4641 30.7413 45.45C29.3222 45.4324 27.9422 45.9164 26.8432 46.817C25.6385 47.7755 24.4222 48.7183 23.1941 49.6454C21.709 50.7744 19.9397 50.8593 18.4946 49.9023C18.2949 49.2801 18.4946 48.903 19.1055 48.738C19.4459 48.6647 19.7957 48.6464 20.1418 48.6838C21.2696 48.7568 22.2001 48.3397 23.0507 47.6231C24.8757 46.0848 26.7045 44.559 28.5373 43.0458C29.2786 42.4057 30.1667 41.9603 31.122 41.7495C31.3942 41.6748 31.6826 41.6847 31.9491 41.7778C32.445 41.9866 32.9774 42.0941 33.5152 42.0941C34.053 42.0941 34.5854 41.9866 35.0813 41.7778C36.7043 41.465 38.3718 41.4658 39.9945 41.7801Z" fill="#FAF8F9"/>
<path d="M47.5207 45.3133C47.5207 42.0276 47.4737 38.7419 47.5395 35.4563C47.5583 34.4569 47.0484 33.8818 46.4139 33.3209C45.1004 32.1589 43.7447 31.0605 42.1844 30.2167C40.4009 29.2379 38.4685 28.561 36.4652 28.2132C35.235 27.9817 33.9817 27.897 32.7315 27.961C29.4842 28.1802 26.432 28.9038 23.906 31.1807C22.3378 32.54 20.873 34.0149 19.5238 35.593C19.4456 35.6665 19.3597 35.7313 19.2677 35.7863C19.2559 34.7445 19.2512 33.7027 19.2277 32.6609C19.2288 32.5427 19.2574 32.4263 19.3113 32.3212C19.3651 32.216 19.4427 32.1249 19.5379 32.0552C22.8275 28.9581 26.6505 27.0065 31.1502 26.5021C37.3088 25.8138 42.6168 27.7254 47.187 31.8548C47.3332 31.978 47.4487 32.1338 47.5242 32.3098C47.5997 32.4858 47.6331 32.6771 47.6217 32.8683C47.6099 36.9766 47.6217 41.0872 47.6217 45.1954C47.6205 45.2386 47.6134 45.2814 47.6005 45.3227C47.5737 45.3221 47.5469 45.3189 47.5207 45.3133Z" fill="#F6A96D"/>
<path d="M35.906 51.5876C35.3408 51.5646 34.7955 51.3716 34.3411 51.0337C33.5868 50.5175 33.2062 50.5222 32.4496 51.0337C30.6943 52.2122 28.7229 51.4438 28.2201 49.3838C27.9569 48.3161 28.0157 48.2053 29.0307 47.7339C29.5698 47.5041 30.151 47.3909 30.7366 47.4016H36.3313C37.0729 47.3803 37.8056 47.5681 38.4461 47.9437C38.6035 48.0403 38.7891 48.111 38.815 48.3561C38.9771 49.9778 37.5132 51.6112 35.906 51.5876Z" fill="#F9BC87"/>
<path d="M31.9585 41.7683C30.3395 41.8697 29.1059 42.7371 27.9217 43.7459C26.1531 45.2543 24.365 46.7385 22.5573 48.1982C22.0088 48.6321 21.3264 48.8597 20.6282 48.8417C20.2616 48.8417 19.895 48.8417 19.5261 48.8417C18.7366 48.8558 18.5134 49.0774 18.4899 49.8953C17.7145 49.5181 17.2845 48.8252 16.7723 48.0262C17.2701 48.0513 17.7689 48.0513 18.2667 48.0262C19.2814 47.8974 20.2321 47.4588 20.99 46.7699C22.8298 45.219 24.712 43.7058 26.5259 42.136C27.8065 41.0212 29.3033 40.9057 30.8565 41.0306C31.2959 41.0565 31.5661 41.5468 31.9585 41.7683Z" fill="#EFEDEF"/>
<path d="M46.1038 54.5126C46.0873 54.2581 46.0427 54.0695 45.7043 54.0577C44.0431 53.9988 42.6614 53.2469 41.3762 52.2664C40.918 51.9152 40.4645 51.5593 40.0063 51.1987C40.2651 50.6901 40.442 50.1436 40.5303 49.5794C41.4701 50.2865 42.3348 50.9653 43.2465 51.5876C44.1964 52.2097 45.3102 52.5323 46.4445 52.5139C46.3059 53.2068 46.3153 53.888 46.1038 54.5126Z" fill="#EFEDEF"/>
<path d="M49.6378 34.5607C50.6155 35.8214 51.4664 37.1762 52.1778 38.6053C52.2313 38.6966 52.2534 38.8031 52.2407 38.9083C52.2279 39.0135 52.1811 39.1116 52.1073 39.1874C51.3672 40.1848 50.5408 41.1147 49.6378 41.9663V34.5607Z" fill="#6DB85A"/>
<path d="M39.581 59.6721C40.0157 59.0876 40.4386 58.4936 40.8898 57.9185C41.449 57.2114 41.9495 57.1336 42.7366 57.6074C43.04 57.7712 43.3285 57.9613 43.599 58.1754C44.0689 58.5808 44.4402 58.4582 44.802 58.0363C44.8809 57.9642 44.9685 57.9025 45.0629 57.8525C44.6258 58.9579 43.9138 59.8795 43.1478 60.7681C42.9622 60.9849 42.8259 60.9708 42.6121 60.827C42.1069 60.4923 41.5806 60.1906 41.0777 59.8512C40.5749 59.5118 40.0932 59.4388 39.588 59.8206L39.581 59.6721Z" fill="#EFEDEF"/>
<path d="M17.1882 41.8673C16.3093 41.0342 15.5064 40.124 14.7891 39.1474C14.7231 39.0778 14.682 38.9882 14.6722 38.8926C14.6624 38.7971 14.6845 38.701 14.7351 38.6194C15.1063 37.9594 15.4541 37.2853 15.8371 36.6348C16.2309 35.9504 16.6829 35.3013 17.1882 34.695V41.8673Z" fill="#6DB85A"/>
<path d="M31.5097 38.2635H35.5418C35.2763 38.6807 35.0413 39.1191 34.7429 39.508C34.6057 39.704 34.4234 39.8639 34.2116 39.9744C33.9997 40.0848 33.7645 40.1425 33.5258 40.1425C33.287 40.1425 33.0518 40.0848 32.8399 39.9744C32.6281 39.8639 32.4458 39.704 32.3086 39.508C32.0102 39.1191 31.7752 38.6807 31.5097 38.2635Z" fill="#F6A96D"/>
<path d="M39.9945 41.7801H35.0907C35.7603 41.0589 36.5968 40.9269 37.5367 40.9952C38.432 41.0495 39.2732 41.2074 39.9945 41.7801Z" fill="#EEECEE"/>
<path d="M26.0513 35.8711C24.7026 35.8711 23.5089 35.2442 22.4539 34.3344C22.3578 34.2607 22.2781 34.1676 22.2199 34.0613C22.1617 33.9549 22.1262 33.8375 22.1158 33.7166C22.1054 33.5957 22.1203 33.4739 22.1595 33.3591C22.1987 33.2443 22.2614 33.139 22.3435 33.0498C22.4096 32.9489 22.495 32.8622 22.5949 32.7947C22.6947 32.7272 22.8068 32.6803 22.9249 32.6566C23.0429 32.6329 23.1644 32.633 23.2824 32.6568C23.4004 32.6806 23.5126 32.7277 23.6123 32.7953C23.8355 32.9225 24.0399 33.0875 24.2538 33.236C25.4639 34.0704 26.6951 34.1199 27.9475 33.3256C28.2508 33.1193 28.5645 32.929 28.8874 32.7552C28.9872 32.6981 29.0972 32.6614 29.2111 32.647C29.3251 32.6327 29.4407 32.6412 29.5514 32.6718C29.6621 32.7025 29.7657 32.7548 29.8562 32.8257C29.9467 32.8967 30.0223 32.9848 30.0787 33.0852C30.3701 33.5094 30.356 33.9997 29.9589 34.3202C28.8475 35.2183 27.6233 35.8853 26.0513 35.8711Z" fill="#020201"/>
<path d="M40.5444 35.8735C39.4118 35.8735 38.2158 35.2041 37.1114 34.3414C36.7026 34.0233 36.6791 33.5424 36.9587 33.1111C37.0141 33.0042 37.0909 32.9099 37.1843 32.8342C37.2777 32.7585 37.3858 32.703 37.5016 32.6711C37.6174 32.6392 37.7385 32.6317 37.8574 32.649C37.9763 32.6663 38.0903 32.7081 38.1923 32.7717C38.4789 32.9202 38.7468 33.1087 39.0194 33.2808C40.3611 34.1246 41.5712 34.0916 42.88 33.1771C43.0562 33.0545 43.2254 32.9155 43.4134 32.8094C43.5167 32.7385 43.6332 32.689 43.7559 32.6639C43.8786 32.6388 44.005 32.6385 44.1278 32.6631C44.2506 32.6877 44.3673 32.7367 44.471 32.8071C44.5746 32.8776 44.6632 32.9681 44.7315 33.0734C44.8071 33.1676 44.8631 33.2762 44.896 33.3926C44.929 33.5089 44.9383 33.6307 44.9234 33.7508C44.9085 33.8708 44.8697 33.9867 44.8093 34.0914C44.7489 34.1961 44.6681 34.2875 44.5718 34.3603C43.4697 35.3597 42.0297 35.9007 40.5444 35.8735Z" fill="#020201"/>
<path d="M32.5506 29.6934C32.5506 28.9604 32.9336 28.4961 33.5234 28.4937C34.1132 28.4914 34.5079 28.9651 34.5009 29.7571C34.5009 30.4878 34.1202 30.9497 33.5258 30.9497C32.9313 30.9497 32.5436 30.476 32.5506 29.6934Z" fill="#070502"/>
</g>
<defs>
<clipPath id="clip0_34_60">
<rect width="156" height="67" fill="white"/>
</clipPath>
</defs>
</svg>
