<?xml version="1.0" encoding="utf-8"?>
<!-- Generator: Adobe Illustrator 26.0.3, SVG Export Plug-In . SVG Version: 6.00 Build 0)  -->
<svg version="1.1" id="svg859" xmlns="http://www.w3.org/2000/svg" xmlns:xlink="http://www.w3.org/1999/xlink" x="0px" y="0px"
	 viewBox="0 0 52 52" style="enable-background:new 0 0 52 52;" xml:space="preserve">
<style type="text/css">
	.st0{fill:#32BCAD;}
</style>
<g>
	<path class="st0" d="M40.5,39.7c-2,0-3.9-0.8-5.4-2.2l-7.8-7.8c-0.5-0.5-1.5-0.5-2,0l-7.8,7.8c-1.4,1.4-3.4,2.2-5.4,2.2h-1.6
		l9.9,9.9c3.1,3.1,8.1,3.1,11.2,0l9.9-9.9L40.5,39.7L40.5,39.7z"/>
	<path class="st0" d="M17.5,14.4l7.8,7.8c0.6,0.6,1.5,0.6,2,0l7.8-7.8c1.4-1.4,3.4-2.2,5.4-2.2h0.9l-9.9-9.9
		c-3.1-3.1-8.1-3.1-11.2,0l-9.9,9.9h1.6C14.1,12.2,16,13,17.5,14.4z"/>
	<path class="st0" d="M43.7,14.4c-0.1,0.1-0.3,0.1-0.4,0.1h-2.7c-1.4,0-2.8,0.6-3.8,1.6l-7.8,7.8c-0.7,0.7-1.7,1.1-2.6,1.1
		c-1,0-1.9-0.4-2.6-1.1l-7.8-7.8c-1-1-2.4-1.6-3.8-1.6H8.7c-0.1,0-0.3,0-0.4-0.1l-6,6c-3.1,3.1-3.1,8.1,0,11.2l6,6
		c0.1-0.1,0.3-0.1,0.4-0.1H12c1.4,0,2.8-0.6,3.8-1.6l7.8-7.8c1.4-1.4,3.9-1.4,5.3,0l7.8,7.8c1,1,2.4,1.6,3.8,1.6h2.7
		c0.1,0,0.3,0,0.4,0.1l6-6c3.1-3.1,3.1-8.1,0-11.1L43.7,14.4z"/>
</g>
</svg>
