<svg width="24" height="24" viewBox="0 0 24 24" fill="none" xmlns="http://www.w3.org/2000/svg">
<path d="M5.65 20C5.2 20 4.8 19.85 4.5 19.5C4.2 19.2 4 18.8 4 18.35C4 17.9 4.15 17.5 4.45 17.2C4.75 16.9 5.15 16.7 5.6 16.7C6.05 16.7 6.45 16.85 6.8 17.2C7.1 17.5 7.25 17.9 7.25 18.35C7.25 18.8 7.1 19.2 6.8 19.5C6.5 19.85 6.1 20 5.65 20ZM5.65 13.65C5.2 13.65 4.8 13.5 4.5 13.15C4.2 12.85 4 12.45 4 12C4 11.55 4.15 11.15 4.45 10.8C4.75 10.5 5.15 10.3 5.6 10.3C6.05 10.3 6.45 10.45 6.8 10.8C7.1 11.1 7.25 11.5 7.25 12C7.25 12.5 7.1 12.85 6.8 13.2C6.5 13.5 6.1 13.65 5.65 13.65ZM5.65 7.3C5.2 7.3 4.8 7.15 4.5 6.85C4.2 6.55 4 6.15 4 5.7C4 5.2 4.15 4.8 4.45 4.5C4.75 4.2 5.15 4 5.65 4C6.1 4 6.5 4.15 6.8 4.45C7.1 4.75 7.25 5.15 7.25 5.6C7.25 6.05 7.1 6.45 6.8 6.8C6.5 7.15 6.1 7.3 5.65 7.3ZM12 13.65C11.55 13.65 11.15 13.5 10.8 13.15C10.5 12.85 10.3 12.45 10.3 11.95C10.3 11.5 10.45 11.1 10.8 10.75C11.1 10.45 11.5 10.25 12 10.25C12.5 10.25 12.85 10.4 13.2 10.75C13.5 11.05 13.7 11.45 13.7 11.95L12 13.65ZM12 7.3C11.55 7.3 11.15 7.15 10.8 6.85C10.5 6.55 10.3 6.15 10.3 5.65C10.3 5.15 10.45 4.8 10.8 4.45C11.15 4.15 11.55 4 12 4C12.45 4 12.85 4.15 13.2 4.45C13.5 4.75 13.7 5.15 13.7 5.6C13.7 6.05 13.55 6.45 13.2 6.8C12.85 7.15 12.45 7.3 12 7.3ZM11 20V18.4L17.1 12.35L18.7 13.95L12.6 20H11ZM18.35 7.3C17.9 7.3 17.5 7.15 17.2 6.85C16.9 6.55 16.7 6.15 16.7 5.7C16.7 5.25 16.85 4.85 17.2 4.5C17.55 4.15 17.9 4 18.35 4C18.8 4 19.2 4.15 19.5 4.45C19.8 4.75 20 5.15 20 5.6C20 6.05 19.85 6.45 19.5 6.8C19.2 7.15 18.8 7.3 18.35 7.3ZM19.35 13.25L17.75 11.65L18.35 11.05C18.5 10.9 18.65 10.85 18.85 10.85C19.05 10.85 19.2 10.9 19.35 11.05L20 11.7C20.15 11.85 20.2 12 20.2 12.2C20.2 12.4 20.1 12.55 20 12.7L19.35 13.25Z" fill="#F5A011"/>
</svg>
