<svg xmlns="http://www.w3.org/2000/svg" viewBox="0 0 477.86 375.46"><defs><style>.cls-1{fill:#bebec7;}</style></defs><g id="Layer_2" data-name="Layer 2"><g id="Capa_1" data-name="Capa 1"><path class="cls-1" d="M472.86,124.46,353.4,5a17.07,17.07,0,0,0-29.14,12.06v51.2H204.8a17.07,17.07,0,0,0,0,34.14H341.33A17.07,17.07,0,0,0,358.4,85.33V58.26l78.27,78.27L358.4,214.8V187.73a17.07,17.07,0,0,0-17.07-17.07H153.6v-51.2a17.07,17.07,0,0,0-29.14-12.06L5,226.86A17.06,17.06,0,0,0,5,251L124.46,370.46a17.07,17.07,0,0,0,12.07,5,16.88,16.88,0,0,0,6.54-1.29A17.09,17.09,0,0,0,153.6,358.4V307.2H273.06a17.07,17.07,0,1,0,0-34.14H136.53a17.07,17.07,0,0,0-17.07,17.07V317.2L41.2,238.93l78.26-78.27v27.07a17.07,17.07,0,0,0,17.07,17.07H324.26V256a17.07,17.07,0,0,0,29.14,12.06L472.86,148.6A17.06,17.06,0,0,0,472.86,124.46Z"></path></g></g></svg>