<svg width="24" height="24" viewBox="0 0 24 24" fill="none" xmlns="http://www.w3.org/2000/svg">
<path d="M4.5 21C4.1 21 3.75 20.85 3.45 20.55C3.15 20.25 3 19.9 3 19.5V4.5C3 4.1 3.15 3.75 3.45 3.45C3.75 3.15 4.1 3 4.5 3H19.5C19.9 3 20.25 3.15 20.55 3.45C20.85 3.75 21 4.1 21 4.5V19.5C21 19.9 20.85 20.25 20.55 20.55C20.25 20.85 19.9 21 19.5 21H4.5ZM4.5 19.5H19.5V6.5H4.5V19.5ZM12 16.9C10.65 16.9 9.45 16.55 8.45 15.85C7.4 15.15 6.65 14.2 6.15 13.05C6.65 11.9 7.4 10.95 8.45 10.25C9.5 9.55 10.7 9.2 12 9.2C13.3 9.2 14.55 9.55 15.55 10.25C16.6 10.95 17.35 11.9 17.85 13.05C17.35 14.2 16.6 15.15 15.55 15.85C14.55 16.5 13.35 16.9 12 16.9ZM12 15.6C12.95 15.6 13.8 15.35 14.6 14.9C15.4 14.45 16.05 13.8 16.5 12.95C16.05 12.15 15.45 11.5 14.6 11C13.8 10.55 12.9 10.3 12 10.3C11.1 10.3 10.2 10.55 9.4 11C8.6 11.45 8 12.1 7.5 12.95C7.95 13.75 8.55 14.4 9.4 14.9C10.2 15.4 11.05 15.6 12 15.6ZM12 14.25C11.65 14.25 11.35 14.15 11.1 13.9C10.85 13.65 10.75 13.35 10.75 13C10.75 12.65 10.85 12.35 11.1 12.1C11.35 11.85 11.65 11.75 12 11.75C12.35 11.75 12.65 11.85 12.9 12.1C13.15 12.35 13.25 12.65 13.25 13C13.25 13.35 13.15 13.65 12.9 13.9C12.65 14.15 12.35 14.25 12 14.25Z" fill="#F5A011"/>
</svg>
